<?xml version="1.0" standalone="yes"?>
<svg width="100" height="100">
<path style="fill:#000000; stroke:none;" d="M0 0L0 36C10.0271 33.6128 13.9922 36.9564 14 47L17 47C17 42.1102 16.4385 36.8302 17.26 32C17.8535 28.5103 19.7445 25.4302 20.5401 22C21.5598 17.6036 20.6287 14.4104 25 12C26.129 18.0813 25.3122 26.3463 32 29C32.2423 21.5583 35.3593 22.9445 40.7145 19.9776C43.7891 18.2743 45.5051 15.9864 49 15C49 9.91855 48.8168 4.96975 50 0L0 0z"/>
<path style="fill:#373737; stroke:none;" d="M50 0L51 1L50 0z"/>
<path style="fill:#7a7a7a; stroke:none;" d="M51.6667 0.333336C51.2222 0.777786 52.2778 0.722206 52.3333 0.666664C52.7778 0.222252 51.7222 0.277756 51.6667 0.333336z"/>
<path style="fill:#000000; stroke:none;" d="M53 0C54.5981 4.3848 53.6578 11.8704 56.6034 15.2855C61.5093 20.9734 69.329 19.131 70 28C76.7512 28.0045 82.1196 28.1664 83 36C87.8916 36.3732 89.6268 38.1084 90 43C97.5602 45.9233 96 60.0529 96 67C96 70.7698 94.5842 76.0538 99 77C96.5442 81.4536 92.6825 80.9979 88 81L61 81C62.2228 82.1952 62.42 82.3164 64 83L62 87C60.6614 85.8406 59.6734 84.847 57.885 84.4252C48.1123 82.1201 48.4203 96.5436 58.777 93.3025C60.1406 92.8757 60.9593 91.9016 62 91L64 95C59.7225 96.1643 55.4452 98.3221 51.044 96.3326C42.8671 92.6362 46.014 83.4335 53 81C49.0414 79.3389 44.2603 80 40 80L17 80C13.429 80 6.28145 81.3117 3.57716 78.3966C1.80635 76.4877 2.83671 73.2997 2.95062 71C3.24806 64.9952 5.28273 52.8099 0 49L0 81L6 81C5.96344 84.7213 7.41452 87.6461 9 91C11.506 87.9607 12.5997 84.9076 13 81L19 81C15.5729 85.8177 13.0075 91.1486 12 97L6 97C6.05135 91.7137 2.98654 86.8421 1 82C-1.19141 87.2224 0 94.3678 0 100L100 100L100 85C95.9336 88.4053 95.0577 91.8221 95 97L90 97C91.902 89.8469 87.7396 86.686 81 87L81 97L76 97C76.9904 93.65 76.9981 90.486 77 87L72 87L72 83L91 83C91.3863 85.1426 91.7451 86.2495 93 88C94.9557 84.8574 96.3156 83.5827 100 83L100 0L53 0z"/>
<path style="fill:#1e1e1e; stroke:none;" d="M49 1L49 15C50.6668 11.0279 50.6668 4.97208 49 1z"/>
<path style="fill:#909090; stroke:none;" d="M50 1L51 2L50 1z"/>
<path style="fill:#e1e1e1; stroke:none;" d="M51.6667 1.33334C51.2222 1.77777 52.2778 1.72221 52.3333 1.66666C52.7778 1.22223 51.7222 1.27778 51.6667 1.33334z"/>
<path style="fill:#717171; stroke:none;" d="M53 1L54 2L53 1z"/>
<path style="fill:#e3e3e3; stroke:none;" d="M50 2L50 8C50.9511 5.71471 50.9511 4.28529 50 2z"/>
<path style="fill:#fcfcfc; stroke:none;" d="M51 2L50 16C44.9984 16.3805 43.955 19.6356 39.7924 21.3974C37.7325 22.2692 35.1813 21.9923 33 22L33 48L30 48L31 29L27 29C26.6724 23.8466 25.4643 17.9411 24 13C22.9193 15.5745 23.2715 18.2492 22.4552 20.9105C21.3881 24.3897 19.2583 27.3714 18.456 31.0008C17.3309 36.0908 18 41.8093 18 47L20 47C20 39.2687 19.4538 32.0901 25 26L25 31C30.3181 34.0059 28 42.5366 28 48L12 48L12 36L1 36L1 38L10 38C10.0003 41.0161 9.17499 45.8663 11.179 48.3966C12.7232 50.3463 15.8021 49.984 18.0008 49.9992C23.4853 50.0372 29.9947 48.5498 33 54L28 54L28 56L32 56L32 58C29.7951 58.0941 28.1059 58.3562 26 59C28.3316 59.9845 30.4567 59.9813 33 60C33 65.4373 32.6809 70.6123 32 76C29.411 75.8322 26.6482 74.555 24.1157 74.7145C19.3654 75.0136 12.8642 78.006 8.3179 74.9722C5.72907 73.2447 6.01953 69.7252 6.00077 67C5.95189 59.8981 6.11031 53.0398 7 46L1 46C7.10023 55.6725 4.40367 66.8933 3 78C34.6774 78 66.3352 80 98 80L98 78L47 77L47 49C43.8873 48.9997 39.028 49.8212 36.6034 47.3966C35.179 45.9722 35.1013 43.882 35.0193 41.9992C34.8336 37.7387 33.2761 27.7798 37.3171 25.027C38.8999 23.9488 40.937 24.1937 42.625 23.402C46.4587 21.6039 47.9733 17.3149 52.9961 18.3364C58.2238 19.3996 61.2182 23.522 67 24L67 76L69 76L69 32C75.5298 31.1977 78.8671 31.8927 80 39C85.1985 39.3966 85.6283 41.6261 88.5255 45.4066C94.6422 53.3884 93 66.211 93 76C95.3948 70.293 94.0004 62.1537 94 56C93.9998 53.1554 94.3957 49.8873 93.5671 47.1289C92.3711 43.1472 89.3417 41.5224 89 37L81 36C80.7404 28.0943 75.5721 29 69 29C68.9763 27.0005 69.3048 24.291 67.9722 22.6011C66.7967 21.1104 64.7729 21.134 63.1651 20.4205C59.3243 18.7161 57.4247 16.334 53 16L53 2L51 2z"/>
<path style="fill:#e4e4e4; stroke:none;" d="M53 2L53 8C53.9511 5.71471 53.9511 4.28529 53 2z"/>
<path style="fill:#0e0e0e; stroke:none;" d="M54 3L54 15C55.5124 11.3957 55.5124 6.6043 54 3z"/>
<path style="fill:#c5c5c5; stroke:none;" d="M53 8L53 12C53.7102 10.2405 53.7102 9.75948 53 8z"/>
<path style="fill:#616161; stroke:none;" d="M22.6667 12.3333C22.2222 12.7777 23.2778 12.7222 23.3333 12.6667C23.7778 12.2222 22.7222 12.2778 22.6667 12.3333z"/>
<path style="fill:#313131; stroke:none;" d="M24 12L25 13L24 12z"/>
<path style="fill:#aaaaaa; stroke:none;" d="M53 12L53 16C53.7102 14.2405 53.7102 13.7595 53 12z"/>
<path style="fill:#0f0f0f; stroke:none;" d="M21 13L21 23C22.3457 19.793 22.3457 16.207 21 13z"/>
<path style="fill:#b8b8b8; stroke:none;" d="M22 13L23 14L22 13z"/>
<path style="fill:#b2b2b2; stroke:none;" d="M24 13L25 14L24 13z"/>
<path style="fill:#d2d2d2; stroke:none;" d="M22 14L22 23C23.2561 20.0059 23.2561 16.9941 22 14z"/>
<path style="fill:#464646; stroke:none;" d="M25.3333 14.6667C25.2778 14.7222 25.2222 15.7778 25.6667 15.3333C25.7222 15.2778 25.7778 14.2222 25.3333 14.6667z"/>
<path style="fill:#141414; stroke:none;" d="M45 15C46.5061 15.683 47.3148 15.8259 49 16C47.494 15.317 46.6852 15.1741 45 15z"/>
<path style="fill:#4b4b4b; stroke:none;" d="M49 15L50 16L49 15z"/>
<path style="fill:#2b2b2b; stroke:none;" d="M54.6667 15.3333C54.2222 15.7778 55.2778 15.7222 55.3333 15.6667C55.7777 15.2223 54.7222 15.2778 54.6667 15.3333z"/>
<path style="fill:#6b6b6b; stroke:none;" d="M25 16L25 23C26.0595 20.4657 26.0595 18.5343 25 16z"/>
<path style="fill:#919191; stroke:none;" d="M44 16L45 17L44 16z"/>
<path style="fill:#777777; stroke:none;" d="M58 16L59 17L58 16z"/>
<path style="fill:#ababab; stroke:none;" d="M43 17L44 18L43 17z"/>
<path style="fill:#565656; stroke:none;" d="M59 17L60 18L59 17z"/>
<path style="fill:#515151; stroke:none;" d="M42 18L43 19L42 18z"/>
<path style="fill:#e7e7e7; stroke:none;" d="M47 18C49.8897 19.2129 52.8741 18.9983 56 19C53.1103 17.7871 50.1259 18.0017 47 18z"/>
<path style="fill:#3d3d3d; stroke:none;" d="M60 18L61 19L60 18z"/>
<path style="fill:#a9a9a9; stroke:none;" d="M42 19L43 20L42 19z"/>
<path style="fill:#6f6f6f; stroke:none;" d="M46 19L47 20L46 19z"/>
<path style="fill:#141414; stroke:none;" d="M47 19C49.8897 20.2129 52.8741 19.9983 56 20C53.1103 18.7871 50.1259 19.0017 47 19z"/>
<path style="fill:#989898; stroke:none;" d="M56 19L57 20L56 19z"/>
<path style="fill:#404040; stroke:none;" d="M61 19L62 20L61 19z"/>
<path style="fill:#3b3b3b; stroke:none;" d="M41 20L42 21L41 20z"/>
<path style="fill:#a1a1a1; stroke:none;" d="M45 20L46 21L45 20z"/>
<path style="fill:#000000; stroke:none;" d="M41 25C42.6033 31.7343 44.2189 43.5271 36 46C42.0193 48.5267 47.3594 46.5326 48 55C51.3679 54.198 54.5448 54.0095 58 54C55.8881 57.83 53.1605 57.9508 49 58L49 62C52.0395 61.2757 54.8783 61.0262 58 61L58 65C54.8783 64.9738 52.0395 64.7243 49 64L49 75L59 75L59 70C56.2155 69.9417 53.7092 69.6479 51 69L51 67C53.7092 66.3521 56.2155 66.0583 59 66C59 55.0003 58.9527 43.9995 59.0008 33C59.0176 29.1477 60.3169 23.5469 56.5023 21.0278C50.6983 17.1949 45.5993 22.4106 41 25z"/>
<path style="fill:#c3c3c3; stroke:none;" d="M57 20L58 21L57 20z"/>
<path style="fill:#cecece; stroke:none;" d="M61 20L62 21L61 20z"/>
<path style="fill:#6d6d6d; stroke:none;" d="M62 20C63.506 20.683 64.3148 20.8259 66 21C64.4939 20.317 63.6852 20.1741 62 20z"/>
<path style="fill:#1a1a1a; stroke:none;" d="M66.6667 20.3333C66.2222 20.7778 67.2778 20.7222 67.3333 20.6667C67.7778 20.2222 66.7222 20.2778 66.6667 20.3333z"/>
<path style="fill:#5d5d5d; stroke:none;" d="M33 21L34 22L33 21z"/>
<path style="fill:#d6d6d6; stroke:none;" d="M34 21C36.6127 22.0977 39.1645 21.9928 42 22C39.3873 20.9023 36.8355 21.0072 34 21z"/>
<path style="fill:#444444; stroke:none;" d="M45 21L46 22L45 21z"/>
<path style="fill:#353535; stroke:none;" d="M57 21L58 22L57 21z"/>
<path style="fill:#cbcbcb; stroke:none;" d="M58 21L59 22L58 21z"/>
<path style="fill:#6f6f6f; stroke:none;" d="M68 21L69 22L68 21z"/>
<path style="fill:#5a5a5a; stroke:none;" d="M32 22L33 23L32 22z"/>
<path style="fill:#c1c1c1; stroke:none;" d="M44 22L45 23L44 22z"/>
<path style="fill:#3a3a3a; stroke:none;" d="M58 22L59 23L58 22z"/>
<path style="fill:#353535; stroke:none;" d="M69 22L69 28C69.9511 25.7147 69.9511 24.2853 69 22z"/>
<path style="fill:#565656; stroke:none;" d="M20 23L21 24L20 23z"/>
<path style="fill:#b9b9b9; stroke:none;" d="M21 23L22 24L21 23z"/>
<path style="fill:#818181; stroke:none;" d="M26 23L27 24L26 23z"/>
<path style="fill:#bababa; stroke:none;" d="M32 23L32 45C34.2187 39.7127 34.2187 28.2873 32 23z"/>
<path style="fill:#4b4b4b; stroke:none;" d="M44 23L45 24L44 23z"/>
<path style="fill:#525252; stroke:none;" d="M59 23L60 24L59 23z"/>
<path style="fill:#d2d2d2; stroke:none;" d="M60 23C61.2483 23.6848 61.5484 23.7488 63 24C61.7517 23.3152 61.4516 23.2512 60 23z"/>
<path style="fill:#363636; stroke:none;" d="M19 24L19 28C19.7102 26.2405 19.7102 25.7595 19 24z"/>
<path style="fill:#6a6a6a; stroke:none;" d="M27 24L28 25L27 24z"/>
<path style="fill:#6d6d6d; stroke:none;" d="M36 24C38.4408 25.6141 40.1474 25.5489 43 25C40.6685 24.0155 38.5433 24.0187 36 24z"/>
<path style="fill:#575757; stroke:none;" d="M60 24L61 25L60 24z"/>
<path style="fill:#848484; stroke:none;" d="M61 24L62 25L61 24z"/>
<path style="fill:#4e4e4e; stroke:none;" d="M62 24L63 25L62 24z"/>
<path style="fill:#121212; stroke:none;" d="M63 24L63 76C65.0851 71.031 64 64.3503 64 59L64 25C65.4345 29.8532 65 34.9643 65 40C66.9822 35.2762 66 29.0902 66 24L63 24z"/>
<path style="fill:#e6e6e6; stroke:none;" d="M66 24L66 28C66.7102 26.2405 66.7102 25.7595 66 24z"/>
<path style="fill:#a4a4a4; stroke:none;" d="M27 25L27 29C27.7102 27.2405 27.7102 26.7595 27 25z"/>
<path style="fill:#979797; stroke:none;" d="M35 25L35 42C36.8826 37.5135 36.8826 29.4865 35 25z"/>
<path style="fill:#0f0f0f; stroke:none;" d="M36 25L36 42L38 42L38 25L36 25z"/>
<path style="fill:#b8b8b8; stroke:none;" d="M39 25L40 26L39 25z"/>
<path style="fill:#151515; stroke:none;" d="M53 25C54.506 25.683 55.3148 25.8259 57 26C55.494 25.317 54.6852 25.1741 53 25z"/>
<path style="fill:#343434; stroke:none;" d="M59 25L59 66C60.552 62.3014 60 57.9828 60 54C60 45.4661 62.3062 32.879 59 25z"/>
<path style="fill:#eeeeee; stroke:none;" d="M60 25L60 63C60 67.2414 58.6014 74.0302 62 77C60.0181 68.6755 61 59.5179 61 51C61 42.4821 60.0181 33.3245 62 25L60 25z"/>
<path style="fill:#b4b4b4; stroke:none;" d="M62 25L63 26L62 25z"/>
<path style="fill:#050505; stroke:none;" d="M64 25L64 76L66 76C66 62.9806 66.4022 49.9507 65.1698 37C64.7857 32.9645 65.583 28.7724 64 25z"/>
<path style="fill:#595959; stroke:none;" d="M23 26L24 27L23 26z"/>
<path style="fill:#b7b7b7; stroke:none;" d="M24 26L24 30C24.7102 28.2405 24.7102 27.7595 24 26z"/>
<path style="fill:#e7e7e7; stroke:none;" d="M38 26L38 30C38.7102 28.2405 38.7102 27.7595 38 26z"/>
<path style="fill:#f4f4f4; stroke:none;" d="M39 26C39 32.7806 38.5365 38.4616 37 45C43.4472 42.8602 41 31.6327 41 26L39 26z"/>
<path style="fill:#333333; stroke:none;" d="M41 26L41 29C41.6961 27.4463 41.6961 27.5537 41 26z"/>
<path style="fill:#848484; stroke:none;" d="M44 26L45 27L44 26z"/>
<path style="fill:#bcbcbc; stroke:none;" d="M45 26C46.2484 26.6848 46.5484 26.7488 48 27C46.7517 26.3152 46.4516 26.2512 45 26z"/>
<path style="fill:#727272; stroke:none;" d="M48 26L49 27L48 26z"/>
<path style="fill:#848484; stroke:none;" d="M52 26L53 27L52 26z"/>
<path style="fill:#ebebeb; stroke:none;" d="M52 27C53.7885 28.4215 54.7057 28.6974 57 29L57 26C55.1218 26.1759 53.8006 26.4382 52 27z"/>
<path style="fill:#5a5a5a; stroke:none;" d="M57 26L58 27L57 26z"/>
<path style="fill:#fbfbfb; stroke:none;" d="M61 26L61 76C62.6611 72.0414 62 67.2603 62 63L62 40C62 35.4645 62.7687 30.2151 61 26z"/>
<path style="fill:#e4e4e4; stroke:none;" d="M62 26L62 77C63.7687 72.7849 63 67.5355 63 63L63 39C63 34.7397 63.6611 29.9586 62 26z"/>
<path style="fill:#000000; stroke:none;" d="M23 27L21 35C23.3772 34.428 25.558 34.1095 28 34L23 27z"/>
<path style="fill:#636363; stroke:none;" d="M43.3333 27.6667C43.2778 27.7222 43.2222 28.7778 43.6667 28.3333C43.7222 28.2778 43.7778 27.2222 43.3333 27.6667z"/>
<path style="fill:#d4d4d4; stroke:none;" d="M44.3333 27.6667C44.2778 27.7222 44.2222 28.7778 44.6667 28.3333C44.7222 28.2778 44.7778 27.2222 44.3333 27.6667z"/>
<path style="fill:#f4f4f4; stroke:none;" d="M45 27L45 29L48 29L48 27L45 27z"/>
<path style="fill:#c3c3c3; stroke:none;" d="M48.3333 27.6667C48.2778 27.7222 48.2222 28.7778 48.6667 28.3333C48.7222 28.2778 48.7778 27.2222 48.3333 27.6667z"/>
<path style="fill:#444444; stroke:none;" d="M49.3333 27.6667C49.2778 27.7222 49.2222 28.7778 49.6667 28.3333C49.7222 28.2778 49.7778 27.2222 49.3333 27.6667z"/>
<path style="fill:#1f1f1f; stroke:none;" d="M51.3333 27.6667C51.2778 27.7222 51.2222 28.7778 51.6667 28.3333C51.7222 28.2778 51.7778 27.2222 51.3333 27.6667z"/>
<path style="fill:#9a9a9a; stroke:none;" d="M57 27L58 28L57 27z"/>
<path style="fill:#393939; stroke:none;" d="M18 28L19 29L18 28z"/>
<path style="fill:#7c7c7c; stroke:none;" d="M19 28L20 29L19 28z"/>
<path style="fill:#666666; stroke:none;" d="M28.6667 28.3333C28.2222 28.7778 29.2778 28.7222 29.3333 28.6667C29.7778 28.2222 28.7222 28.2778 28.6667 28.3333z"/>
<path style="fill:#a6a6a6; stroke:none;" d="M52 28L53 29L52 28z"/>
<path style="fill:#5a5a5a; stroke:none;" d="M57 28L58 29L57 28z"/>
<path style="fill:#d3d3d3; stroke:none;" d="M66 28L66 32C66.7102 30.2405 66.7102 29.7595 66 28z"/>
<path style="fill:#787878; stroke:none;" d="M69 28C70.2484 28.6848 70.5484 28.7488 72 29C70.7517 28.3152 70.4516 28.2512 69 28z"/>
<path style="fill:#999999; stroke:none;" d="M72 28C73.506 28.683 74.3148 28.8259 76 29C74.4939 28.317 73.6852 28.1741 72 28z"/>
<path style="fill:#6e6e6e; stroke:none;" d="M76 28C77.506 28.683 78.3148 28.8259 80 29C78.4939 28.317 77.6852 28.1741 76 28z"/>
<path style="fill:#414141; stroke:none;" d="M17 29L18 30L17 29z"/>
<path style="fill:#c2c2c2; stroke:none;" d="M18 29L19 30L18 29z"/>
<path style="fill:#b7b7b7; stroke:none;" d="M22 29L23 30L22 29z"/>
<path style="fill:#676767; stroke:none;" d="M31 29L32 30L31 29z"/>
<path style="fill:#6c6c6c; stroke:none;" d="M41 29L41 38C42.2561 35.0059 42.2561 31.9941 41 29z"/>
<path style="fill:#898989; stroke:none;" d="M44 29C45.5061 29.683 46.3148 29.8259 48 30C46.494 29.317 45.6852 29.1741 44 29z"/>
<path style="fill:#515151; stroke:none;" d="M48 29L49 30L48 29z"/>
<path style="fill:#363636; stroke:none;" d="M52 29C53.2483 29.6848 53.5484 29.7488 55 30C53.7517 29.3152 53.4516 29.2512 52 29z"/>
<path style="fill:#c2c2c2; stroke:none;" d="M80 29L81 30L80 29z"/>
<path style="fill:#2c2c2c; stroke:none;" d="M81 29L82 30L81 29z"/>
<path style="fill:#b5b5b5; stroke:none;" d="M17 30L17 33C17.6961 31.4463 17.6961 31.5537 17 30z"/>
<path style="fill:#838383; stroke:none;" d="M22 30L23 31L22 30z"/>
<path style="fill:#888888; stroke:none;" d="M24 30L25 31L24 30z"/>
<path style="fill:#9e9e9e; stroke:none;" d="M31 30L31 36C31.9511 33.7147 31.9511 32.2853 31 30z"/>
<path style="fill:#d5d5d5; stroke:none;" d="M38 30L38 38C39.1614 35.2301 39.1614 32.7699 38 30z"/>
<path style="fill:#989898; stroke:none;" d="M81 30L82 31L81 30z"/>
<path style="fill:#a5a5a5; stroke:none;" d="M21 31L22 32L21 31z"/>
<path style="fill:#373737; stroke:none;" d="M22 31L23 32L22 31z"/>
<path style="fill:#8d8d8d; stroke:none;" d="M25 31L26 32L25 31z"/>
<path style="fill:#d3d3d3; stroke:none;" d="M26.6667 31.3333C26.2222 31.7778 27.2778 31.7222 27.3333 31.6667C27.7778 31.2222 26.7222 31.2778 26.6667 31.3333z"/>
<path style="fill:#151515; stroke:none;" d="M52 31C53.769 31.7789 55.0359 31.9124 57 32C55.231 31.2211 53.9641 31.0876 52 31z"/>
<path style="fill:#bcbcbc; stroke:none;" d="M72 31C73.5061 31.683 74.3148 31.8259 76 32C74.4939 31.317 73.6852 31.1741 72 31z"/>
<path style="fill:#d8d8d8; stroke:none;" d="M76.6667 31.3333C76.2222 31.7778 77.2778 31.7222 77.3333 31.6667C77.7778 31.2222 76.7222 31.2778 76.6667 31.3333z"/>
<path style="fill:#e9e9e9; stroke:none;" d="M81 31L81 36C81.8299 33.9695 81.8299 33.0305 81 31z"/>
<path style="fill:#141414; stroke:none;" d="M82 31L82 35C82.7102 33.2405 82.7102 32.7595 82 31z"/>
<path style="fill:#d5d5d5; stroke:none;" d="M20 32C20 36.9454 21.089 42.9226 18 47C22.8107 48.8135 21.3123 34.7175 20 32z"/>
<path style="fill:#bababa; stroke:none;" d="M28 32L28 36C28.7102 34.2405 28.7102 33.7595 28 32z"/>
<path style="fill:#7b7b7b; stroke:none;" d="M44 32L45 33L44 32z"/>
<path style="fill:#efefef; stroke:none;" d="M45 32L45 35L48 35L48 32L45 32z"/>
<path style="fill:#5a5a5a; stroke:none;" d="M48 32L49 33L48 32z"/>
<path style="fill:#7d7d7d; stroke:none;" d="M51 32L52 33L51 32z"/>
<path style="fill:#f0f0f0; stroke:none;" d="M52 32L52 35C54.2049 34.9059 55.8941 34.6438 58 34C55.9433 32.4181 54.6125 32.1744 52 32z"/>
<path style="fill:#7d7d7d; stroke:none;" d="M57 32L58 33L57 32z"/>
<path style="fill:#b8b8b8; stroke:none;" d="M66 32L66 40C67.1614 37.2302 67.1614 34.7699 66 32z"/>
<path style="fill:#979797; stroke:none;" d="M69 32L69 39C70.0595 36.4657 70.0595 34.5343 69 32z"/>
<path style="fill:#0e0e0e; stroke:none;" d="M70 32L70 76C73.0112 74.3249 75.5801 74.0379 79 74C76.3873 72.9023 73.8355 73.0072 71 73C71 66.7369 71.6925 60.1999 71 54L72 53C76.3154 54.0274 83.7995 55.6626 87 52C84.9926 52.4777 83.0758 52.9226 80.9954 52.9205C68.8123 52.9085 71 41.9845 71 33L78 33C75.3873 31.9023 72.8355 32.0072 70 32z"/>
<path style="fill:#616161; stroke:none;" d="M78 32L79 33L78 32z"/>
<path style="fill:#959595; stroke:none;" d="M17 33L17 36C17.6961 34.4463 17.6961 34.5537 17 33z"/>
<path style="fill:#202020; stroke:none;" d="M43.3333 33.6667C43.2778 33.7222 43.2222 34.7778 43.6667 34.3333C43.7222 34.2778 43.7778 33.2222 43.3333 33.6667z"/>
<path style="fill:#a4a4a4; stroke:none;" d="M44.3333 33.6667C44.2778 33.7222 44.2222 34.7778 44.6667 34.3333C44.7222 34.2778 44.7778 33.2222 44.3333 33.6667z"/>
<path style="fill:#999999; stroke:none;" d="M48 33L49 34L48 33z"/>
<path style="fill:#cacaca; stroke:none;" d="M51 33L52 34L51 33z"/>
<path style="fill:#000000; stroke:none;" d="M71 33L71 50C73.0417 49.1055 74.8277 48.4637 77 48L76 53L86 53C84.2866 50.6406 83.4225 48.8881 83 46C75.9653 45.9169 72.3302 43.379 74 36L76 36L77 42L86 42L86 40C80.5841 39.5869 81.0027 36.8304 77.2785 34.027C75.5552 32.7298 73.0191 33.0241 71 33z"/>
<path style="fill:#2c2c2c; stroke:none;" d="M78.3333 33.6667C78.2778 33.7222 78.2222 34.7778 78.6667 34.3333C78.7222 34.2778 78.7778 33.2222 78.3333 33.6667z"/>
<path style="fill:#898989; stroke:none;" d="M22.6667 34.3333C22.2222 34.7778 23.2778 34.7222 23.3333 34.6667C23.7778 34.2222 22.7222 34.2778 22.6667 34.3333z"/>
<path style="fill:#424242; stroke:none;" d="M24 34C25.506 34.683 26.3148 34.8259 28 35C26.494 34.317 25.6852 34.1741 24 34z"/>
<path style="fill:#5c5c5c; stroke:none;" d="M48 34L49 35L48 34z"/>
<path style="fill:#7d7d7d; stroke:none;" d="M51 34L52 35L51 34M57 34L58 35L57 34z"/>
<path style="fill:#909090; stroke:none;" d="M1 35C2.76904 35.7789 4.03594 35.9124 6 36C4.23095 35.2211 2.96407 35.0876 1 35z"/>
<path style="fill:#6c6c6c; stroke:none;" d="M6 35C8.05209 35.8742 9.74718 35.9528 12 36C9.9479 35.1257 8.25282 35.0472 6 35z"/>
<path style="fill:#464646; stroke:none;" d="M21.3333 35.6667C21.2778 35.7222 21.2222 36.7778 21.6667 36.3333C21.7222 36.2778 21.7778 35.2222 21.3333 35.6667z"/>
<path style="fill:#b2b2b2; stroke:none;" d="M22 35L22 37L24 37L24 35L22 35z"/>
<path style="fill:#868686; stroke:none;" d="M24.3333 35.6667C24.2778 35.7222 24.2222 36.7778 24.6667 36.3333C24.7222 36.2778 24.7778 35.2222 24.3333 35.6667z"/>
<path style="fill:#b8b8b8; stroke:none;" d="M25 35L25 37L27 37L27 35L25 35z"/>
<path style="fill:#6a6a6a; stroke:none;" d="M27 35C26.4549 36.6352 26.6352 36.4549 25 37C26.006 38.731 26.5465 40.053 27 42C28.0595 39.4657 28.0595 37.5343 27 35z"/>
<path style="fill:#464646; stroke:none;" d="M45.6667 35.3333C45.2222 35.7778 46.2778 35.7222 46.3333 35.6667C46.7778 35.2222 45.7222 35.2778 45.6667 35.3333z"/>
<path style="fill:#151515; stroke:none;" d="M52 35C53.769 35.7789 55.0359 35.9124 57 36C55.231 35.2211 53.9641 35.0876 52 35z"/>
<path style="fill:#e5e5e5; stroke:none;" d="M79 35L79 38C79.6961 36.4463 79.6961 36.5537 79 35z"/>
<path style="fill:#404040; stroke:none;" d="M82 35L83 36L82 35z"/>
<path style="fill:#bbbbbb; stroke:none;" d="M0 36C1.44628 38.2827 2.31055 38.5824 5 39L0 36z"/>
<path style="fill:#aeaeae; stroke:none;" d="M12 36L13 37L12 36z"/>
<path style="fill:#6d6d6d; stroke:none;" d="M17 36L17 47C18.4309 43.59 18.4309 39.41 17 36z"/>
<path style="fill:#4b4b4b; stroke:none;" d="M31.3333 36.6667C31.2778 36.7222 31.2222 37.7778 31.6667 37.3333C31.7222 37.2778 31.7778 36.2222 31.3333 36.6667z"/>
<path style="fill:#626262; stroke:none;" d="M74.6667 36.3333C74.2222 36.7778 75.2778 36.7222 75.3333 36.6667C75.7778 36.2222 74.7222 36.2778 74.6667 36.3333z"/>
<path style="fill:#b4b4b4; stroke:none;" d="M85 36C86.2484 36.6848 86.5484 36.7488 88 37C86.7517 36.3152 86.4516 36.2512 85 36z"/>
<path style="fill:#3c3c3c; stroke:none;" d="M88 36L89 37L88 36z"/>
<path style="fill:#e5e5e5; stroke:none;" d="M12 37L12 48C13.4309 44.59 13.4309 40.41 12 37z"/>
<path style="fill:#131313; stroke:none;" d="M13 37L13 47C14.3457 43.793 14.3457 40.207 13 37z"/>
<path style="fill:#282828; stroke:none;" d="M21 37L21 44C22.2174 41.4227 22.5356 39.5804 25 38C23.494 37.317 22.6852 37.1741 21 37z"/>
<path style="fill:#959595; stroke:none;" d="M73 37L73 43C73.9511 40.7147 73.9511 39.2853 73 37z"/>
<path style="fill:#d7d7d7; stroke:none;" d="M74.6667 37.3333C74.2223 37.7777 75.2778 37.7223 75.3333 37.6667C75.7778 37.2222 74.7222 37.2778 74.6667 37.3333z"/>
<path style="fill:#6d6d6d; stroke:none;" d="M76 37L77 38L76 37z"/>
<path style="fill:#393939; stroke:none;" d="M89 37L90 38L89 37z"/>
<path style="fill:#626262; stroke:none;" d="M0 38L1 39L0 38z"/>
<path style="fill:#d4d4d4; stroke:none;" d="M5 38C6.76904 38.7789 8.03594 38.9124 10 39C8.23096 38.2211 6.96406 38.0876 5 38z"/>
<path style="fill:#8c8c8c; stroke:none;" d="M22 38L23 39L22 38z"/>
<path style="fill:#d3d3d3; stroke:none;" d="M22 39C23.9023 40.156 24.7218 40.1565 27 40C25.0725 38.9091 24.2296 38.8346 22 39z"/>
<path style="fill:#9b9b9b; stroke:none;" d="M24 38C25.2484 38.6848 25.5484 38.7488 27 39C25.7517 38.3152 25.4516 38.2512 24 38z"/>
<path style="fill:#1b1b1b; stroke:none;" d="M31 38L31 47C32.2561 44.0059 32.2561 40.9941 31 38z"/>
<path style="fill:#e9e9e9; stroke:none;" d="M38 38L38 42C38.7102 40.2405 38.7102 39.7595 38 38z"/>
<path style="fill:#363636; stroke:none;" d="M41 38L41 42C41.7102 40.2405 41.7102 39.7595 41 38z"/>
<path style="fill:#f9f9f9; stroke:none;" d="M74 38C74.057 39.7356 73.8432 41.9456 75.0278 43.4012C78.3131 47.4383 82.9221 44.2408 84 51C90.3324 54.6994 88.9993 68.3199 89 75C91.2956 69.5293 91.1314 57.891 89.6867 52.0895C88.8574 48.7589 86.5401 46.5084 86 43C81.2171 42.9831 77.5475 43.0976 76 38L74 38z"/>
<path style="fill:#b7b7b7; stroke:none;" d="M76 38L76 42C76.7102 40.2405 76.7102 39.7595 76 38z"/>
<path style="fill:#535353; stroke:none;" d="M79 38L80 39L79 38z"/>
<path style="fill:#989898; stroke:none;" d="M89 38L90 39L89 38z"/>
<path style="fill:#000000; stroke:none;" d="M0 39L0 46C2.16853 45.5525 4.57295 44.8488 6.39815 46.6181C8.48485 48.6408 7.9946 52.3761 8 55L8 74C10.2782 73.8435 11.0977 73.8439 13 75L15 75C19.8465 72.6648 25.935 73.8142 31 75L31 66L21 66C21.2367 73.3073 14.4087 72.2877 9 71C11.2883 65.0482 10.1287 58.6818 12 53C9.94152 48.589 9.04083 44.8674 9 40C5.87828 39.9738 3.03951 39.7243 0 39z"/>
<path style="fill:#101010; stroke:none;" d="M1 39C3.6127 40.0977 6.16451 39.9928 9 40C6.38729 38.9023 3.83549 39.0072 1 39z"/>
<path style="fill:#333333; stroke:none;" d="M9 39L9 48C10.2561 45.0059 10.2561 41.9941 9 39z"/>
<path style="fill:#7b7b7b; stroke:none;" d="M45 39L46 40L45 39z"/>
<path style="fill:#d7d7d7; stroke:none;" d="M46 39C47.2483 39.6848 47.5484 39.7488 49 40C47.7517 39.3152 47.4516 39.2512 46 39z"/>
<path style="fill:#515151; stroke:none;" d="M49 39L50 40L49 39z"/>
<path style="fill:#636363; stroke:none;" d="M51 39L52 40L51 39z"/>
<path style="fill:#dddddd; stroke:none;" d="M52 39C53.7691 39.7789 55.0359 39.9124 57 40C55.231 39.2211 53.9641 39.0876 52 39z"/>
<path style="fill:#646464; stroke:none;" d="M57 39L58 40L57 39z"/>
<path style="fill:#b8b8b8; stroke:none;" d="M69 39L69 45C69.9511 42.7147 69.9511 41.2853 69 39z"/>
<path style="fill:#2f2f2f; stroke:none;" d="M80 39C81.5061 39.683 82.3148 39.8259 84 40C82.494 39.317 81.6852 39.1741 80 39z"/>
<path style="fill:#969696; stroke:none;" d="M84.6667 39.3333C84.2223 39.7777 85.2778 39.7222 85.3333 39.6667C85.7778 39.2222 84.7222 39.2778 84.6667 39.3333z"/>
<path style="fill:#d3d3d3; stroke:none;" d="M89 39L89 43C89.7102 41.2405 89.7102 40.7595 89 39z"/>
<path style="fill:#8b8b8b; stroke:none;" d="M22 40L23 41L22 40z"/>
<path style="fill:#9a9a9a; stroke:none;" d="M24 40C25.2484 40.6848 25.5484 40.7488 27 41C25.7517 40.3152 25.4516 40.2512 24 40z"/>
<path style="fill:#202020; stroke:none;" d="M44.3333 40.6667C44.2778 40.7222 44.2222 41.7778 44.6667 41.3333C44.7222 41.2778 44.7778 40.2222 44.3333 40.6667z"/>
<path style="fill:#a4a4a4; stroke:none;" d="M45.3333 40.6667C45.2778 40.7222 45.2222 41.7778 45.6667 41.3333C45.7222 41.2778 45.7778 40.2222 45.3333 40.6667z"/>
<path style="fill:#f0f0f0; stroke:none;" d="M46 40L46 42L49 42L49 40L46 40z"/>
<path style="fill:#727272; stroke:none;" d="M49.3333 40.6667C49.2778 40.7222 49.2222 41.7778 49.6667 41.3333C49.7222 41.2778 49.7778 40.2222 49.3333 40.6667z"/>
<path style="fill:#bbbbbb; stroke:none;" d="M51 40L52 41L51 40z"/>
<path style="fill:#f4f4f4; stroke:none;" d="M52 40L52 42L57 42L57 40L52 40z"/>
<path style="fill:#bbbbbb; stroke:none;" d="M57 40L58 41L57 40z"/>
<path style="fill:#979797; stroke:none;" d="M66 40L66 46C66.9511 43.7147 66.9511 42.2853 66 40z"/>
<path style="fill:#717171; stroke:none;" d="M86 40L85 43C86.7662 42.0214 86.9555 41.7782 86 40z"/>
<path style="fill:#4f4f4f; stroke:none;" d="M22 41L23 42L22 41z"/>
<path style="fill:#878787; stroke:none;" d="M23 41L24 42L23 41z"/>
<path style="fill:#494949; stroke:none;" d="M24 41C25.2484 41.6848 25.5484 41.7488 27 42C25.7517 41.3152 25.4516 41.2512 24 41z"/>
<path style="fill:#d5d5d5; stroke:none;" d="M30 41L30 44C30.6961 42.4463 30.6961 42.5537 30 41z"/>
<path style="fill:#8e8e8e; stroke:none;" d="M51 41L52 42L51 41z"/>
<path style="fill:#8d8d8d; stroke:none;" d="M57 41L58 42L57 41z"/>
<path style="fill:#c7c7c7; stroke:none;" d="M22 42L22 46C23.3142 45.2321 23.2321 45.3142 24 44C25.4063 45.3915 26.2713 46.0735 28 47L28 42L22 42z"/>
<path style="fill:#bdbdbd; stroke:none;" d="M35 42L35 45C36.0154 43.8607 36.3087 43.3884 37 42L35 42z"/>
<path style="fill:#585858; stroke:none;" d="M46 42C47.2483 42.6848 47.5484 42.7488 49 43C47.7516 42.3152 47.4516 42.2512 46 42z"/>
<path style="fill:#434343; stroke:none;" d="M51 42L52 43L51 42z"/>
<path style="fill:#818181; stroke:none;" d="M52.6667 42.3333C52.2222 42.7778 53.2778 42.7222 53.3333 42.6667C53.7778 42.2222 52.7222 42.2778 52.6667 42.3333z"/>
<path style="fill:#5d5d5d; stroke:none;" d="M54 42L54 46L57 43C55.7516 42.3152 55.4516 42.2512 54 42z"/>
<path style="fill:#bcbcbc; stroke:none;" d="M77 42C79.6127 43.0977 82.1645 42.9928 85 43C82.3873 41.9023 79.8355 42.0072 77 42z"/>
<path style="fill:#dadada; stroke:none;" d="M36.3333 43.6667C36.2778 43.7222 36.2222 44.7778 36.6667 44.3333C36.7222 44.2778 36.7778 43.2222 36.3333 43.6667z"/>
<path style="fill:#565656; stroke:none;" d="M50.3333 43.6667C50.2778 43.7222 50.2222 44.7778 50.6667 44.3333C50.7222 44.2778 50.7778 43.2222 50.3333 43.6667z"/>
<path style="fill:#d6d6d6; stroke:none;" d="M51 43L51 45L54 45L54 43L51 43z"/>
<path style="fill:#4d4d4d; stroke:none;" d="M73 43L74 44L73 43z"/>
<path style="fill:#959595; stroke:none;" d="M86.3333 43.6667C86.2777 43.7223 86.2222 44.7778 86.6667 44.3333C86.7222 44.2778 86.7778 43.2222 86.3333 43.6667z"/>
<path style="fill:#838383; stroke:none;" d="M90.6667 43.3333C90.2222 43.7778 91.2778 43.7222 91.3333 43.6667C91.7778 43.2222 90.7222 43.2778 90.6667 43.3333z"/>
<path style="fill:#3c3c3c; stroke:none;" d="M92 43L93 44L92 43z"/>
<path style="fill:#737373; stroke:none;" d="M21.3333 44.6667C21.2778 44.7222 21.2222 45.7778 21.6667 45.3333C21.7222 45.2778 21.7778 44.2222 21.3333 44.6667z"/>
<path style="fill:#848484; stroke:none;" d="M24.3333 44.6667C24.2778 44.7222 24.2222 45.7778 24.6667 45.3333C24.7222 45.2778 24.7778 44.2222 24.3333 44.6667z"/>
<path style="fill:#bdbdbd; stroke:none;" d="M30 44L30 48C30.7102 46.2405 30.7102 45.7595 30 44z"/>
<path style="fill:#818181; stroke:none;" d="M40 44L41 45L40 44z"/>
<path style="fill:#959595; stroke:none;" d="M74 44L75 45L74 44z"/>
<path style="fill:#313131; stroke:none;" d="M93 44L94 45L93 44z"/>
<path style="fill:#626262; stroke:none;" d="M1 45C2.24833 45.6848 2.54844 45.7488 4 46C2.75165 45.3152 2.45157 45.2512 1 45z"/>
<path style="fill:#9b9b9b; stroke:none;" d="M4.66667 45.3333C4.22222 45.7778 5.27778 45.7222 5.33333 45.6667C5.77778 45.2222 4.72223 45.2778 4.66667 45.3333z"/>
<path style="fill:#646464; stroke:none;" d="M6 45L7 46L6 45z"/>
<path style="fill:#d1d1d1; stroke:none;" d="M32 45L32 48C32.6961 46.4463 32.6961 46.5537 32 45z"/>
<path style="fill:#676767; stroke:none;" d="M35 48L39 46C36.5878 44.6452 35.5676 45.3511 35 48z"/>
<path style="fill:#3b3b3b; stroke:none;" d="M39 45L40 46L39 45z"/>
<path style="fill:#a5a5a5; stroke:none;" d="M51 45C52.2483 45.6848 52.5484 45.7488 54 46C52.7517 45.3152 52.4516 45.2512 51 45z"/>
<path style="fill:#d2d2d2; stroke:none;" d="M69 45L69 69C71.3486 63.4031 71.3486 50.5969 69 45z"/>
<path style="fill:#6e6e6e; stroke:none;" d="M75 45C76.769 45.7789 78.0359 45.9124 80 46C78.231 45.2211 76.9641 45.0876 75 45z"/>
<path style="fill:#959595; stroke:none;" d="M80 45C81.2484 45.6848 81.5484 45.7488 83 46C81.7517 45.3152 81.4516 45.2512 80 45z"/>
<path style="fill:#797979; stroke:none;" d="M86 45L86 48C86.6961 46.4463 86.6961 46.5537 86 45z"/>
<path style="fill:#c3c3c3; stroke:none;" d="M87 45L88 46L87 45z"/>
<path style="fill:#898989; stroke:none;" d="M93 45L94 46L93 45z"/>
<path style="fill:#747474; stroke:none;" d="M0.333333 46.6667C0.277772 46.7222 0.222228 47.7778 0.666667 47.3333C0.722211 47.2778 0.777789 46.2222 0.333333 46.6667z"/>
<path style="fill:#767676; stroke:none;" d="M7.33333 46.6667C7.27778 46.7222 7.22223 47.7778 7.66667 47.3333C7.72222 47.2778 7.77778 46.2222 7.33333 46.6667z"/>
<path style="fill:#404040; stroke:none;" d="M21 46L22 47L21 46z"/>
<path style="fill:#5d5d5d; stroke:none;" d="M22 46C23.2228 47.1952 23.42 47.3164 25 48C24.0198 46.2167 24.0924 46.4057 22 46z"/>
<path style="fill:#8e8e8e; stroke:none;" d="M25.6667 46.3333C25.2222 46.7778 26.2778 46.7222 26.3333 46.6667C26.7778 46.2222 25.7222 46.2778 25.6667 46.3333z"/>
<path style="fill:#181818; stroke:none;" d="M52.6667 46.3333C52.2222 46.7778 53.2778 46.7222 53.3333 46.6667C53.7778 46.2222 52.7222 46.2778 52.6667 46.3333z"/>
<path style="fill:#6b6b6b; stroke:none;" d="M66 46L66 68C68.2187 62.7127 68.2187 51.2873 66 46z"/>
<path style="fill:#c5c5c5; stroke:none;" d="M83 46L83 49C83.6961 47.4463 83.6961 47.5537 83 46z"/>
<path style="fill:#111111; stroke:none;" d="M87 46C87.9802 47.7833 87.9076 47.5943 90 48C88.8606 46.9846 88.3884 46.6913 87 46z"/>
<path style="fill:#b6b6b6; stroke:none;" d="M88.6667 46.3333C88.2223 46.7777 89.2777 46.7223 89.3333 46.6667C89.7778 46.2222 88.7222 46.2778 88.6667 46.3333z"/>
<path style="fill:#1d1d1d; stroke:none;" d="M94.3333 46.6667C94.2778 46.7222 94.2222 47.7778 94.6667 47.3333C94.7222 47.2778 94.7778 46.2222 94.3333 46.6667z"/>
<path style="fill:#535353; stroke:none;" d="M13.6667 47.3333C13.2222 47.7778 14.2778 47.7222 14.3333 47.6667C14.7778 47.2222 13.7222 47.2778 13.6667 47.3333z"/>
<path style="fill:#8a8a8a; stroke:none;" d="M15 47C16.2484 47.6848 16.5484 47.7488 18 48C16.7516 47.3152 16.4516 47.2512 15 47z"/>
<path style="fill:#7e7e7e; stroke:none;" d="M21.6667 47.3333C21.2222 47.7778 22.2778 47.7222 22.3333 47.6667C22.7778 47.2222 21.7222 47.2778 21.6667 47.3333z"/>
<path style="fill:#434343; stroke:none;" d="M25.6667 47.3333C25.2222 47.7778 26.2778 47.7222 26.3333 47.6667C26.7778 47.2222 25.7222 47.2778 25.6667 47.3333z"/>
<path style="fill:#989898; stroke:none;" d="M27 47L28 48L27 47z"/>
<path style="fill:#464646; stroke:none;" d="M31 47L32 48L31 47z"/>
<path style="fill:#131313; stroke:none;" d="M36 47C39.1633 48.3274 42.5856 47.9996 46 48C42.8367 46.6726 39.4144 47.0004 36 47z"/>
<path style="fill:#505050; stroke:none;" d="M51 47L52 48L51 47z"/>
<path style="fill:#c4c4c4; stroke:none;" d="M52.6667 47.3333C52.2222 47.7778 53.2778 47.7222 53.3333 47.6667C53.7778 47.2222 52.7222 47.2778 52.6667 47.3333z"/>
<path style="fill:#7b7b7b; stroke:none;" d="M54 47L55 48L54 47z"/>
<path style="fill:#6e6e6e; stroke:none;" d="M90 47L91 48L90 47z"/>
<path style="fill:#e8e8e8; stroke:none;" d="M91 47L91 55C92.1614 52.2302 92.1614 49.7699 91 47z"/>
<path style="fill:#373737; stroke:none;" d="M0 48L1 49L0 48z"/>
<path style="fill:#9b9b9b; stroke:none;" d="M1 48L2 49L1 48z"/>
<path style="fill:#d4d4d4; stroke:none;" d="M2.66667 48.3333C2.22222 48.7778 3.27778 48.7222 3.33333 48.6667C3.77777 48.2222 2.72223 48.2778 2.66667 48.3333z"/>
<path style="fill:#343434; stroke:none;" d="M7 48L7 51C7.6961 49.4463 7.6961 49.5537 7 48z"/>
<path style="fill:#a8a8a8; stroke:none;" d="M10.3333 48.6667C10.2778 48.7222 10.2222 49.7778 10.6667 49.3333C10.7222 49.2778 10.7778 48.2222 10.3333 48.6667z"/>
<path style="fill:#e8e8e8; stroke:none;" d="M36 48C39.1633 49.3274 42.5856 48.9996 46 49C42.8367 47.6726 39.4144 48.0004 36 48z"/>
<path style="fill:#727272; stroke:none;" d="M46 48L47 49L46 48M51.3333 48.6667C51.2778 48.7222 51.2222 49.7778 51.6667 49.3333C51.7222 49.2778 51.7778 48.2222 51.3333 48.6667z"/>
<path style="fill:#e4e4e4; stroke:none;" d="M52 48L52 50L54 50L54 48L52 48z"/>
<path style="fill:#a4a4a4; stroke:none;" d="M54.3333 48.6667C54.2778 48.7222 54.2222 49.7778 54.6667 49.3333C54.7222 49.2778 54.7778 48.2222 54.3333 48.6667z"/>
<path style="fill:#202020; stroke:none;" d="M55.3333 48.6667C55.2778 48.7222 55.2222 49.7778 55.6667 49.3333C55.7222 49.2778 55.7778 48.2222 55.3333 48.6667z"/>
<path style="fill:#424242; stroke:none;" d="M73 48L74 49L73 48z"/>
<path style="fill:#727272; stroke:none;" d="M74.6667 48.3333C74.2222 48.7777 75.2778 48.7222 75.3333 48.6667C75.7778 48.2222 74.7222 48.2778 74.6667 48.3333z"/>
<path style="fill:#363636; stroke:none;" d="M76 48L77 49L76 48z"/>
<path style="fill:#636363; stroke:none;" d="M78 48L79 49L78 48z"/>
<path style="fill:#c6c6c6; stroke:none;" d="M79.6667 48.3333C79.2222 48.7778 80.2778 48.7222 80.3333 48.6667C80.7778 48.2222 79.7222 48.2778 79.6667 48.3333z"/>
<path style="fill:#646464; stroke:none;" d="M81 48L82 49L81 48z"/>
<path style="fill:#adadad; stroke:none;" d="M87.6667 48.3333C87.2222 48.7778 88.2778 48.7222 88.3333 48.6667C88.7778 48.2222 87.7222 48.2778 87.6667 48.3333z"/>
<path style="fill:#252525; stroke:none;" d="M89 48L90 52C90.7511 49.9535 90.6556 49.4043 89 48z"/>
<path style="fill:#353535; stroke:none;" d="M94 48L94 52C94.7102 50.2405 94.7102 49.7595 94 48z"/>
<path style="fill:#0e0e0e; stroke:none;" d="M1 49C3.8735 54.1669 3 60.2521 3 66C5.08719 61.026 4 54.3619 4 49L1 49z"/>
<path style="fill:#d1d1d1; stroke:none;" d="M4 49L4 63C5.66676 59.0279 5.66676 52.9721 4 49z"/>
<path style="fill:#f2f2f2; stroke:none;" d="M6 49L6 71C8.21865 65.7127 8.21865 54.2873 6 49z"/>
<path style="fill:#2e2e2e; stroke:none;" d="M47.3333 49.6667C47.2778 49.7222 47.2222 50.7778 47.6667 50.3333C47.7222 50.2778 47.7778 49.2222 47.3333 49.6667z"/>
<path style="fill:#9b9b9b; stroke:none;" d="M72.3333 49.6667C72.2778 49.7223 72.2222 50.7778 72.6667 50.3333C72.7222 50.2778 72.7778 49.2222 72.3333 49.6667z"/>
<path style="fill:#ededed; stroke:none;" d="M73 49L73 51L76 51L76 49L73 49z"/>
<path style="fill:#bababa; stroke:none;" d="M76.3333 49.6667C76.2778 49.7222 76.2222 50.7778 76.6667 50.3333C76.7222 50.2778 76.7778 49.2222 76.3333 49.6667z"/>
<path style="fill:#bbbbbb; stroke:none;" d="M78 49L79 50L78 49z"/>
<path style="fill:#e6e6e6; stroke:none;" d="M79 49L79 51L81 51L81 49L79 49z"/>
<path style="fill:#bbbbbb; stroke:none;" d="M81 49L82 50L81 49z"/>
<path style="fill:#808080; stroke:none;" d="M83 49L84 50L83 49z"/>
<path style="fill:#aeaeae; stroke:none;" d="M89 49L90 50L89 49z"/>
<path style="fill:#575757; stroke:none;" d="M10 50L11 51L10 50z"/>
<path style="fill:#e2e2e2; stroke:none;" d="M11 50C12.506 50.683 13.3148 50.8259 15 51C13.4939 50.317 12.6852 50.1741 11 50z"/>
<path style="fill:#bababa; stroke:none;" d="M15 50C17.3316 50.9845 19.4567 50.9813 22 51C19.6684 50.0155 17.5433 50.0187 15 50z"/>
<path style="fill:#e7e7e7; stroke:none;" d="M22 50C25.1633 51.3274 28.5856 50.9996 32 51C28.8367 49.6726 25.4144 50.0004 22 50z"/>
<path style="fill:#4a4a4a; stroke:none;" d="M52.6667 50.3333C52.2222 50.7778 53.2778 50.7222 53.3333 50.6667C53.7778 50.2222 52.7222 50.2778 52.6667 50.3333z"/>
<path style="fill:#8d8d8d; stroke:none;" d="M78 50L79 51L78 50M81 50L82 51L81 50z"/>
<path style="fill:#323232; stroke:none;" d="M83 50L84 51L83 50z"/>
<path style="fill:#6b6b6b; stroke:none;" d="M7 51L7 64C8.59089 60.2087 8.59089 54.7913 7 51z"/>
<path style="fill:#0c0c0c; stroke:none;" d="M11 51C14.5115 53.619 17.8625 52.1336 22 52.054C25.3541 51.9895 28.6666 52.7369 32 53L32 51L11 51z"/>
<path style="fill:#dadada; stroke:none;" d="M32 51C30.457 52.2667 29.9522 52.4892 28 53C30.1911 54.0301 33.1511 54.0535 32 51z"/>
<path style="fill:#f1f1f1; stroke:none;" d="M34 51L34 73C36.2187 67.7127 36.2187 56.2873 34 51z"/>
<path style="fill:#6b6b6b; stroke:none;" d="M35 51L35 70C36.9441 65.3669 37.8282 55.2123 35 51z"/>
<path style="fill:#343434; stroke:none;" d="M36 53L44 52C41.0802 50.7767 38.1633 50.5242 36 53z"/>
<path style="fill:#d6d6d6; stroke:none;" d="M44 51L44 59C45.1614 56.2301 45.1614 53.7699 44 51z"/>
<path style="fill:#6d6d6d; stroke:none;" d="M47 51L47 59C48.1614 56.2301 48.1614 53.7699 47 51z"/>
<path style="fill:#505050; stroke:none;" d="M72 51L73 52L72 51z"/>
<path style="fill:#d5d5d5; stroke:none;" d="M73 51C74.2484 51.6848 74.5484 51.7488 76 52C74.7516 51.3152 74.4516 51.2512 73 51z"/>
<path style="fill:#595959; stroke:none;" d="M76 51L77 52L76 51z"/>
<path style="fill:#4b4b4b; stroke:none;" d="M79.6667 51.3333C79.2222 51.7778 80.2778 51.7222 80.3333 51.6667C80.7778 51.2222 79.7222 51.2778 79.6667 51.3333z"/>
<path style="fill:#333333; stroke:none;" d="M84 51L85 52L84 51z"/>
<path style="fill:#9b9b9b; stroke:none;" d="M85.6667 51.3333C85.2222 51.7778 86.2778 51.7222 86.3333 51.6667C86.7778 51.2222 85.7222 51.2778 85.6667 51.3333z"/>
<path style="fill:#000000; stroke:none;" d="M17 52C18.2018 55.6267 19.1924 57.1725 23 58L21 54L25 53L24 57L28 57C27.3945 54.9681 27.4888 54.0852 28 52L17 52z"/>
<path style="fill:#7d7d7d; stroke:none;" d="M37.6667 52.3333C37.2222 52.7778 38.2778 52.7222 38.3333 52.6667C38.7778 52.2222 37.7222 52.2778 37.6667 52.3333z"/>
<path style="fill:#101010; stroke:none;" d="M40 52C41.2484 52.6848 41.5484 52.7488 43 53L41 58C44.4028 57.2708 43.9865 55.1942 44 52L40 52z"/>
<path style="fill:#747474; stroke:none;" d="M90 52L90 58C90.9511 55.7147 90.9511 54.2853 90 52z"/>
<path style="fill:#6f6f6f; stroke:none;" d="M94 52L94 55C94.6961 53.4463 94.6961 53.5537 94 52z"/>
<path style="fill:#6c6c6c; stroke:none;" d="M11 53L12 54L11 53z"/>
<path style="fill:#d5d5d5; stroke:none;" d="M12 53C13.769 53.7789 15.0359 53.9124 17 54C15.231 53.2211 13.9641 53.0876 12 53z"/>
<path style="fill:#4c4c4c; stroke:none;" d="M17 53L18 54L17 53z"/>
<path style="fill:#898989; stroke:none;" d="M22.6667 53.3333C22.2222 53.7778 23.2778 53.7222 23.3333 53.6667C23.7778 53.2222 22.7222 53.2778 22.6667 53.3333z"/>
<path style="fill:#3c3c3c; stroke:none;" d="M24 53L25 54L24 53z"/>
<path style="fill:#7b7b7b; stroke:none;" d="M27 53L28 54L27 53z"/>
<path style="fill:#f6f6f6; stroke:none;" d="M37 53C37.5568 60.0554 38 66.899 38 74L40 74C40 68.0628 42.1921 56.9526 37 53z"/>
<path style="fill:#909090; stroke:none;" d="M39 53C40.2483 53.6848 40.5484 53.7488 42 54C40.7516 53.3152 40.4516 53.2512 39 53z"/>
<path style="fill:#4d4d4d; stroke:none;" d="M42 53L43 54L42 53z"/>
<path style="fill:#333333; stroke:none;" d="M72.6667 53.3333C72.2222 53.7778 73.2778 53.7222 73.3333 53.6667C73.7778 53.2222 72.7222 53.2778 72.6667 53.3333z"/>
<path style="fill:#d7d7d7; stroke:none;" d="M87 53L87 58C87.8299 55.9695 87.8299 55.0305 87 53z"/>
<path style="fill:#7a7a7a; stroke:none;" d="M10 54L10 57C10.6961 55.4463 10.6961 55.5537 10 54z"/>
<path style="fill:#f9f9f9; stroke:none;" d="M11 54L11 56L17 56L17 54L11 54z"/>
<path style="fill:#6b6b6b; stroke:none;" d="M17.3333 54.6667C17.2778 54.7222 17.2222 55.7778 17.6667 55.3333C17.7222 55.2778 17.7778 54.2222 17.3333 54.6667z"/>
<path style="fill:#3a3a3a; stroke:none;" d="M21.3333 54.6667C21.2778 54.7222 21.2222 55.7778 21.6667 55.3333C21.7222 55.2778 21.7778 54.2222 21.3333 54.6667z"/>
<path style="fill:#b0b0b0; stroke:none;" d="M22 54L22 56L24 56L24 54L22 54z"/>
<path style="fill:#555555; stroke:none;" d="M24.3333 54.6667C24.2778 54.7222 24.2222 55.7778 24.6667 55.3333C24.7222 55.2778 24.7778 54.2222 24.3333 54.6667z"/>
<path style="fill:#202020; stroke:none;" d="M26.3333 54.6667C26.2778 54.7222 26.2222 55.7778 26.6667 55.3333C26.7222 55.2778 26.7778 54.2222 26.3333 54.6667z"/>
<path style="fill:#a4a4a4; stroke:none;" d="M27.3333 54.6667C27.2778 54.7222 27.2222 55.7778 27.6667 55.3333C27.7222 55.2778 27.7778 54.2222 27.3333 54.6667z"/>
<path style="fill:#cccccc; stroke:none;" d="M39 54L39 56L42 56L42 54L39 54z"/>
<path style="fill:#747474; stroke:none;" d="M42.3333 54.6667C42.2778 54.7222 42.2222 55.7778 42.6667 55.3333C42.7222 55.2778 42.7778 54.2222 42.3333 54.6667z"/>
<path style="fill:#5f5f5f; stroke:none;" d="M49 54L50 55L49 54z"/>
<path style="fill:#bcbcbc; stroke:none;" d="M50 54C52.3315 54.9845 54.4567 54.9813 57 55C54.6684 54.0155 52.5433 54.0187 50 54z"/>
<path style="fill:#3c3c3c; stroke:none;" d="M57 54L58 55L57 54z"/>
<path style="fill:#585858; stroke:none;" d="M71.3333 54.6667C71.2778 54.7222 71.2222 55.7778 71.6667 55.3333C71.7222 55.2778 71.7778 54.2222 71.3333 54.6667z"/>
<path style="fill:#ececec; stroke:none;" d="M72 54C74.8528 58.4004 81.2553 57 86 57L86 54L72 54z"/>
<path style="fill:#515151; stroke:none;" d="M86 54L87 55L86 54z"/>
<path style="fill:#292929; stroke:none;" d="M48.3333 55.6667C48.2778 55.7222 48.2222 56.7778 48.6667 56.3333C48.7222 56.2778 48.7778 55.2222 48.3333 55.6667z"/>
<path style="fill:#b1b1b1; stroke:none;" d="M49.3333 55.6667C49.2778 55.7222 49.2222 56.7778 49.6667 56.3333C49.7222 56.2778 49.7778 55.2222 49.3333 55.6667z"/>
<path style="fill:#f6f6f6; stroke:none;" d="M50 55L50 57L57 57L57 55L50 55z"/>
<path style="fill:#808080; stroke:none;" d="M57.3333 55.6667C57.2778 55.7222 57.2222 56.7778 57.6667 56.3333C57.7222 56.2778 57.7778 55.2222 57.3333 55.6667z"/>
<path style="fill:#fcfcfc; stroke:none;" d="M73 55C76.6975 56.5515 81.0168 56 85 56C81.3025 54.4485 76.9832 55 73 55z"/>
<path style="fill:#838383; stroke:none;" d="M86 55L87 56L86 55z"/>
<path style="fill:#a3a3a3; stroke:none;" d="M91 55L91 58C91.6961 56.4463 91.6961 56.5537 91 55z"/>
<path style="fill:#b8b8b8; stroke:none;" d="M94 55L94 58C94.6961 56.4463 94.6961 56.5537 94 55z"/>
<path style="fill:#131313; stroke:none;" d="M95 55L95 63C96.1614 60.2301 96.1614 57.7699 95 55z"/>
<path style="fill:#d9d9d9; stroke:none;" d="M11.6667 56.3333C11.2222 56.7778 12.2778 56.7222 12.3333 56.6667C12.7778 56.2222 11.7222 56.2778 11.6667 56.3333z"/>
<path style="fill:#aeaeae; stroke:none;" d="M13 56L14 57L13 56z"/>
<path style="fill:#585858; stroke:none;" d="M14 56C15.2483 56.6848 15.5484 56.7488 17 57C15.7516 56.3152 15.4516 56.2512 14 56z"/>
<path style="fill:#101010; stroke:none;" d="M13 57C15.3316 57.9845 17.4567 57.9813 20 58C17.6054 56.6237 15.761 56.7869 13 57z"/>
<path style="fill:#2c2c2c; stroke:none;" d="M22 56C23.7885 57.4215 24.7058 57.6974 27 58C25.3068 56.9376 23.9596 56.4804 22 56z"/>
<path style="fill:#5e5e5e; stroke:none;" d="M27 57C28.769 57.7789 30.0359 57.9124 32 58L32 56C30.1218 56.1759 28.8006 56.4382 27 57z"/>
<path style="fill:#444444; stroke:none;" d="M40 56L40 64L44 64C42.7516 63.3152 42.4516 63.2512 41 63C42.4785 62.0143 42.2032 62 44 62C42.7517 61.3152 42.4516 61.2512 41 61L42 56L40 56z"/>
<path style="fill:#9a9a9a; stroke:none;" d="M72 56L73 57L72 56z"/>
<path style="fill:#515151; stroke:none;" d="M86 56L87 57L86 56z"/>
<path style="fill:#4f4f4f; stroke:none;" d="M11 57C11.5451 58.6352 11.3648 58.4549 13 59L13 57L11 57z"/>
<path style="fill:#101010; stroke:none;" d="M36 57L36 76L44 76C41.6684 75.0155 39.5433 75.0187 37 75C37 69.3678 38.1914 62.2224 36 57z"/>
<path style="fill:#e1e1e1; stroke:none;" d="M37 57L37 64C38.0595 61.4657 38.0595 59.5343 37 57z"/>
<path style="fill:#0d0d0d; stroke:none;" d="M48 57L48 76L59 76C55.8367 74.6726 52.4144 75.0004 49 75C49.0006 69.1492 50.5746 62.4014 48 57z"/>
<path style="fill:#424242; stroke:none;" d="M49 57L50 58L49 57z"/>
<path style="fill:#939393; stroke:none;" d="M50 57C52.3315 57.9845 54.4567 57.9813 57 58C54.6684 57.0155 52.5433 57.0187 50 57z"/>
<path style="fill:#000000; stroke:none;" d="M71 57L71 70C76.1977 68.7625 82.0857 67.7148 85 73L71 74L71 76L87 76L87 67L78 67L78 64C81.644 64 86.0964 65.2169 87 61C80.9073 62.1311 76.5698 62.7277 73 57L71 57z"/>
<path style="fill:#151515; stroke:none;" d="M73 57C77.2516 59.5788 82.2172 57.3529 86 61C86.683 59.494 86.8259 58.6852 87 57L73 57z"/>
<path style="fill:#bdbdbd; stroke:none;" d="M13 58C15.3316 58.9845 17.4567 58.9813 20 59C17.6685 58.0155 15.5433 58.0187 13 58z"/>
<path style="fill:#5f5f5f; stroke:none;" d="M20 58L21 59L20 58z"/>
<path style="fill:#333333; stroke:none;" d="M21 58L21 61C22.1952 59.7772 22.3164 59.58 23 58L21 58z"/>
<path style="fill:#bdbdbd; stroke:none;" d="M23 58L23 60L25 60L25 58L23 58z"/>
<path style="fill:#a5a5a5; stroke:none;" d="M25 58L25 60C26.6352 59.4549 26.4549 59.6352 27 58L25 58z"/>
<path style="fill:#808080; stroke:none;" d="M42 58L43 59L42 58z"/>
<path style="fill:#545454; stroke:none;" d="M43 58L44 59L43 58z"/>
<path style="fill:#515151; stroke:none;" d="M75 58L76 59L75 58z"/>
<path style="fill:#898989; stroke:none;" d="M76 58C77.2484 58.6848 77.5484 58.7488 79 59C77.7517 58.3152 77.4516 58.2512 76 58z"/>
<path style="fill:#515151; stroke:none;" d="M81 58L82 59L81 58z"/>
<path style="fill:#898989; stroke:none;" d="M82 58C83.2484 58.6848 83.5484 58.7488 85 59C83.7517 58.3152 83.4516 58.2512 82 58z"/>
<path style="fill:#b7b7b7; stroke:none;" d="M87.3333 58.6667C87.2778 58.7222 87.2222 59.7778 87.6667 59.3333C87.7222 59.2778 87.7778 58.2222 87.3333 58.6667z"/>
<path style="fill:#a7a7a7; stroke:none;" d="M90.3333 58.6667C90.2777 58.7223 90.2222 59.7778 90.6667 59.3333C90.7222 59.2778 90.7778 58.2222 90.3333 58.6667z"/>
<path style="fill:#616161; stroke:none;" d="M91.3333 58.6667C91.2778 58.7222 91.2222 59.7778 91.6667 59.3333C91.7222 59.2778 91.7778 58.2222 91.3333 58.6667z"/>
<path style="fill:#e5e5e5; stroke:none;" d="M92 58L92 72C93.6668 68.0279 93.6668 61.9721 92 58z"/>
<path style="fill:#eeeeee; stroke:none;" d="M94 58L94 76C95.9516 71.349 95.9516 62.651 94 58z"/>
<path style="fill:#808080; stroke:none;" d="M12.3333 59.6667C12.2778 59.7222 12.2222 60.7778 12.6667 60.3333C12.7222 60.2778 12.7778 59.2222 12.3333 59.6667z"/>
<path style="fill:#f6f6f6; stroke:none;" d="M13 59L13 61L20 61L20 59L13 59z"/>
<path style="fill:#b2b2b2; stroke:none;" d="M20.3333 59.6667C20.2778 59.7222 20.2222 60.7778 20.6667 60.3333C20.7222 60.2778 20.7778 59.2222 20.3333 59.6667z"/>
<path style="fill:#9c9c9c; stroke:none;" d="M41.3333 59.6667C41.2778 59.7222 41.2222 60.7778 41.6667 60.3333C41.7222 60.2778 41.7778 59.2222 41.3333 59.6667z"/>
<path style="fill:#c8c8c8; stroke:none;" d="M42.3333 59.6667C42.2778 59.7222 42.2222 60.7778 42.6667 60.3333C42.7222 60.2778 42.7778 59.2222 42.3333 59.6667z"/>
<path style="fill:#929292; stroke:none;" d="M43.3333 59.6667C43.2778 59.7222 43.2222 60.7778 43.6667 60.3333C43.7222 60.2778 43.7778 59.2222 43.3333 59.6667z"/>
<path style="fill:#b8b8b8; stroke:none;" d="M44.3333 59.6667C44.2778 59.7222 44.2222 60.7778 44.6667 60.3333C44.7222 60.2778 44.7778 59.2222 44.3333 59.6667z"/>
<path style="fill:#bbbbbb; stroke:none;" d="M47 59L47 71C48.5124 67.3957 48.5124 62.6043 47 59z"/>
<path style="fill:#4d4d4d; stroke:none;" d="M74.3333 59.6667C74.2778 59.7223 74.2222 60.7778 74.6667 60.3333C74.7222 60.2778 74.7778 59.2222 74.3333 59.6667z"/>
<path style="fill:#cecece; stroke:none;" d="M75.3333 59.6667C75.2778 59.7222 75.2222 60.7778 75.6667 60.3333C75.7222 60.2778 75.7778 59.2222 75.3333 59.6667z"/>
<path style="fill:#f1f1f1; stroke:none;" d="M76 59L76 61L79 61L79 59L76 59z"/>
<path style="fill:#717171; stroke:none;" d="M79.3333 59.6667C79.2778 59.7223 79.2222 60.7778 79.6667 60.3333C79.7222 60.2778 79.7778 59.2222 79.3333 59.6667z"/>
<path style="fill:#525252; stroke:none;" d="M80.3333 59.6667C80.2778 59.7222 80.2222 60.7778 80.6667 60.3333C80.7222 60.2778 80.7778 59.2222 80.3333 59.6667z"/>
<path style="fill:#cecece; stroke:none;" d="M81.3333 59.6667C81.2778 59.7223 81.2222 60.7778 81.6667 60.3333C81.7222 60.2778 81.7778 59.2222 81.3333 59.6667z"/>
<path style="fill:#f1f1f1; stroke:none;" d="M82 59L82 61L85 61L85 59L82 59z"/>
<path style="fill:#6e6e6e; stroke:none;" d="M85.3333 59.6667C85.2778 59.7222 85.2222 60.7778 85.6667 60.3333C85.7222 60.2778 85.7778 59.2222 85.3333 59.6667z"/>
<path style="fill:#101010; stroke:none;" d="M13 62C18.3009 64.6828 25.1979 62.9436 31 63L31 75C32.7693 70.7835 32 65.5411 32 61L13 62z"/>
<path style="fill:#969696; stroke:none;" d="M23.6667 60.3333C23.2222 60.7778 24.2778 60.7222 24.3333 60.6667C24.7778 60.2222 23.7222 60.2778 23.6667 60.3333z"/>
<path style="fill:#7c7c7c; stroke:none;" d="M25.6667 60.3333C25.2222 60.7778 26.2778 60.7222 26.3333 60.6667C26.7778 60.2222 25.7222 60.2778 25.6667 60.3333z"/>
<path style="fill:#d1d1d1; stroke:none;" d="M27 60C28.769 60.7789 30.0359 60.9124 32 61L32 69C33.2129 66.1103 32.9983 63.1259 33 60L27 60z"/>
<path style="fill:#9a9a9a; stroke:none;" d="M87 60L87 63C87.6961 61.4463 87.6961 61.5537 87 60z"/>
<path style="fill:#e8e8e8; stroke:none;" d="M90 60L90 75C88.9191 71.3433 89.0004 67.8008 89 64C87.4485 67.6975 88 72.0168 88 76L91 76C91 70.9099 91.9822 64.7238 90 60z"/>
<path style="fill:#3e3e3e; stroke:none;" d="M91 60L91 64C91.7102 62.2405 91.7102 61.7595 91 60z"/>
<path style="fill:#323232; stroke:none;" d="M12.3333 61.6667C12.2778 61.7222 12.2222 62.7778 12.6667 62.3333C12.7222 62.2778 12.7778 61.2222 12.3333 61.6667z"/>
<path style="fill:#939393; stroke:none;" d="M13 61C15.3316 61.9845 17.4567 61.9813 20 62C17.6685 61.0155 15.5433 61.0187 13 61z"/>
<path style="fill:#424242; stroke:none;" d="M20 61L21 62L20 61z"/>
<path style="fill:#9c9c9c; stroke:none;" d="M44 61L43 71C45.789 68.5629 45.3613 64.2443 44 61z"/>
<path style="fill:#4b4b4b; stroke:none;" d="M50 61L51 62L50 61z"/>
<path style="fill:#bfbfbf; stroke:none;" d="M51 61C52.2483 61.6848 52.5484 61.7488 54 62C52.7517 61.3152 52.4516 61.2512 51 61z"/>
<path style="fill:#565656; stroke:none;" d="M54 61C55.506 61.683 56.3148 61.8259 58 62C56.494 61.317 55.6852 61.1741 54 61z"/>
<path style="fill:#737373; stroke:none;" d="M75 61L76 62L75 61z"/>
<path style="fill:#b2b2b2; stroke:none;" d="M76.6667 61.3333C76.2222 61.7778 77.2778 61.7222 77.3333 61.6667C77.7778 61.2222 76.7222 61.2778 76.6667 61.3333z"/>
<path style="fill:#848484; stroke:none;" d="M78 61L79 62L78 61z"/>
<path style="fill:#1e1e1e; stroke:none;" d="M79.6667 61.3333C79.2222 61.7778 80.2778 61.7222 80.3333 61.6667C80.7778 61.2222 79.7222 61.2778 79.6667 61.3333z"/>
<path style="fill:#737373; stroke:none;" d="M81 61L82 62L81 61z"/>
<path style="fill:#b2b2b2; stroke:none;" d="M82.6667 61.3333C82.2222 61.7777 83.2778 61.7222 83.3333 61.6667C83.7778 61.2222 82.7222 61.2778 82.6667 61.3333z"/>
<path style="fill:#848484; stroke:none;" d="M84 61L85 62L84 61z"/>
<path style="fill:#5a5a5a; stroke:none;" d="M10.6667 62.3333C10.2222 62.7778 11.2778 62.7222 11.3333 62.6667C11.7778 62.2222 10.7222 62.2778 10.6667 62.3333z"/>
<path style="fill:#4a4a4a; stroke:none;" d="M23.6667 62.3333C23.2222 62.7778 24.2778 62.7222 24.3333 62.6667C24.7778 62.2222 23.7222 62.2778 23.6667 62.3333z"/>
<path style="fill:#101010; stroke:none;" d="M41 62C42.2484 62.6848 42.5484 62.7488 44 63C42.7516 62.3152 42.4516 62.2512 41 62z"/>
<path style="fill:#9c9c9c; stroke:none;" d="M50.3333 62.6667C50.2778 62.7222 50.2222 63.7778 50.6667 63.3333C50.7222 63.2778 50.7778 62.2222 50.3333 62.6667z"/>
<path style="fill:#f7f7f7; stroke:none;" d="M51 62L51 64L54 64L54 62L51 62z"/>
<path style="fill:#a7a7a7; stroke:none;" d="M54 62L54 64L56 64L56 62L54 62z"/>
<path style="fill:#c2c2c2; stroke:none;" d="M56.3333 62.6667C56.2778 62.7222 56.2222 63.7778 56.6667 63.3333C56.7222 63.2778 56.7778 62.2222 56.3333 62.6667z"/>
<path style="fill:#7d7d7d; stroke:none;" d="M57.3333 62.6667C57.2778 62.7222 57.2222 63.7778 57.6667 63.3333C57.7222 63.2778 57.7778 62.2222 57.3333 62.6667z"/>
<path style="fill:#a9a9a9; stroke:none;" d="M10.3333 63.6667C10.2778 63.7222 10.2222 64.7778 10.6667 64.3333C10.7222 64.2778 10.7778 63.2222 10.3333 63.6667z"/>
<path style="fill:#cfcfcf; stroke:none;" d="M11.3333 63.6667C11.2778 63.7222 11.2222 64.7778 11.6667 64.3333C11.7222 64.2778 11.7778 63.2222 11.3333 63.6667z"/>
<path style="fill:#adadad; stroke:none;" d="M12 63L12 65L14 65C13.4549 63.3648 13.6352 63.5451 12 63z"/>
<path style="fill:#515151; stroke:none;" d="M13 63L14 64L13 63z"/>
<path style="fill:#dcdcdc; stroke:none;" d="M14 63L14 66C15.7968 66 15.5215 65.9857 17 65C15.7772 63.8048 15.58 63.6836 14 63z"/>
<path style="fill:#adadad; stroke:none;" d="M16 63L17 64L16 63z"/>
<path style="fill:#636363; stroke:none;" d="M18 63L19 64L18 63z"/>
<path style="fill:#d2d2d2; stroke:none;" d="M19 63L19 66L21 65C20.4549 63.3648 20.6352 63.5451 19 63z"/>
<path style="fill:#8b8b8b; stroke:none;" d="M20 63L21 64L20 63z"/>
<path style="fill:#4d4d4d; stroke:none;" d="M22 63L21 65L23 65C23 63.1468 23.2997 63.6498 22 63z"/>
<path style="fill:#b8b8b8; stroke:none;" d="M23 63L23 65L25 65L25 63L23 63z"/>
<path style="fill:#8a8a8a; stroke:none;" d="M25 63L25 65C26.6352 64.4549 26.4549 64.6352 27 63L25 63z"/>
<path style="fill:#c1c1c1; stroke:none;" d="M27 63C28.2483 63.6848 28.5484 63.7488 30 64C28.7516 63.3152 28.4516 63.2512 27 63z"/>
<path style="fill:#4b4b4b; stroke:none;" d="M30 63L31 64L30 63z"/>
<path style="fill:#626262; stroke:none;" d="M87 63L86 66C87.7662 65.0214 87.9555 64.7782 87 63z"/>
<path style="fill:#353535; stroke:none;" d="M95 63L95 71C96.1614 68.2301 96.1614 65.7699 95 63z"/>
<path style="fill:#0f0f0f; stroke:none;" d="M7 64C7 67.8838 5.41908 74.0184 10 75C8.00584 71.4142 8.52361 67.6296 7 64z"/>
<path style="fill:#686868; stroke:none;" d="M17 64L18 65L17 64z"/>
<path style="fill:#a5a5a5; stroke:none;" d="M18 64L19 65L18 64z"/>
<path style="fill:#e2e2e2; stroke:none;" d="M26 64C27.506 64.683 28.3148 64.8259 30 65C28.494 64.317 27.6852 64.1741 26 64z"/>
<path style="fill:#7f7f7f; stroke:none;" d="M30 64L31 65L30 64z"/>
<path style="fill:#c6c6c6; stroke:none;" d="M37 64L37 74C38.3457 70.793 38.3457 67.207 37 64z"/>
<path style="fill:#939393; stroke:none;" d="M40 64L40 74L43 73C42.189 69.9435 41.3928 66.8281 40 64z"/>
<path style="fill:#a7a7a7; stroke:none;" d="M41.3333 64.6667C41.2778 64.7222 41.2222 65.7778 41.6667 65.3333C41.7222 65.2778 41.7778 64.2222 41.3333 64.6667z"/>
<path style="fill:#cacaca; stroke:none;" d="M42.3333 64.6667C42.2778 64.7222 42.2222 65.7778 42.6667 65.3333C42.7222 65.2778 42.7778 64.2222 42.3333 64.6667z"/>
<path style="fill:#323232; stroke:none;" d="M50 64L51 65L50 64z"/>
<path style="fill:#959595; stroke:none;" d="M51 64C52.2483 64.6848 52.5484 64.7488 54 65C52.7516 64.3152 52.4516 64.2512 51 64z"/>
<path style="fill:#3a3a3a; stroke:none;" d="M54 64C55.506 64.683 56.3148 64.8259 58 65C56.494 64.317 55.6852 64.1741 54 64z"/>
<path style="fill:#979797; stroke:none;" d="M73 64L74 65L73 64z"/>
<path style="fill:#d3d3d3; stroke:none;" d="M74.6667 64.3333C74.2222 64.7778 75.2778 64.7222 75.3333 64.6667C75.7778 64.2222 74.7222 64.2778 74.6667 64.3333z"/>
<path style="fill:#646464; stroke:none;" d="M76 64L77 65L76 64z"/>
<path style="fill:#4b4b4b; stroke:none;" d="M78 64L79 65L78 64z"/>
<path style="fill:#ebebeb; stroke:none;" d="M79 64L79 67L85 67C83.231 66.2211 81.9641 66.0876 80 66C81.8006 65.4382 83.1218 65.1759 85 65C82.9479 64.1257 81.2528 64.0472 79 64z"/>
<path style="fill:#adadad; stroke:none;" d="M85 64L86 65L85 64z"/>
<path style="fill:#363636; stroke:none;" d="M86 64L87 65L86 64z"/>
<path style="fill:#252525; stroke:none;" d="M91 64L91 71C92.0595 68.4657 92.0595 66.5343 91 64z"/>
<path style="fill:#4b4b4b; stroke:none;" d="M10 65L11 66L10 65z"/>
<path style="fill:#7f7f7f; stroke:none;" d="M11 65L12 66L11 65z"/>
<path style="fill:#4c4c4c; stroke:none;" d="M12.6667 65.3333C12.2222 65.7778 13.2778 65.7222 13.3333 65.6667C13.7778 65.2222 12.7222 65.2778 12.6667 65.3333z"/>
<path style="fill:#adadad; stroke:none;" d="M16 65L17 66L16 65z"/>
<path style="fill:#333333; stroke:none;" d="M17 65L18 66L17 65z"/>
<path style="fill:#636363; stroke:none;" d="M18 65L19 66L18 65z"/>
<path style="fill:#8b8b8b; stroke:none;" d="M20 65L21 66L20 65z"/>
<path style="fill:#1e1e1e; stroke:none;" d="M21.6667 65.3333C21.2222 65.7778 22.2778 65.7222 22.3333 65.6667C22.7778 65.2222 21.7222 65.2778 21.6667 65.3333z"/>
<path style="fill:#6a6a6a; stroke:none;" d="M23 65C24.506 65.683 25.3148 65.8259 27 66C25.494 65.317 24.6852 65.1741 23 65z"/>
<path style="fill:#c1c1c1; stroke:none;" d="M27 65C28.2483 65.6848 28.5484 65.7488 30 66C28.7516 65.3152 28.4516 65.2512 27 65z"/>
<path style="fill:#4b4b4b; stroke:none;" d="M30 65L31 66L30 65z"/>
<path style="fill:#1a1a1a; stroke:none;" d="M72.3333 65.6667C72.2778 65.7222 72.2222 66.7778 72.6667 66.3333C72.7222 66.2778 72.7778 65.2222 72.3333 65.6667z"/>
<path style="fill:#f5f5f5; stroke:none;" d="M73 65C74.2484 65.6848 74.5484 65.7488 76 66C74.7516 65.3152 74.4516 65.2512 73 65z"/>
<path style="fill:#a8a8a8; stroke:none;" d="M76 65L77 66L76 65z"/>
<path style="fill:#858585; stroke:none;" d="M78 65L79 66L78 65z"/>
<path style="fill:#fcfcfc; stroke:none;" d="M80 65C82.0521 65.8743 83.7472 65.9528 86 66C83.9479 65.1258 82.2528 65.0472 80 65z"/>
<path style="fill:#313131; stroke:none;" d="M3 66L3 70C3.71021 68.2405 3.71021 67.7595 3 66z"/>
<path style="fill:#0c0c0c; stroke:none;" d="M11 66L11 68L21 68L21 66L11 66z"/>
<path style="fill:#6a6a6a; stroke:none;" d="M41 66C42.2484 66.6848 42.5484 66.7488 44 67C42.7516 66.3152 42.4516 66.2512 41 66z"/>
<path style="fill:#515151; stroke:none;" d="M52 66L53 67L52 66z"/>
<path style="fill:#929292; stroke:none;" d="M53 66C54.769 66.7789 56.0359 66.9124 58 67C56.231 66.2211 54.9641 66.0876 53 66z"/>
<path style="fill:#4c4c4c; stroke:none;" d="M58.6667 66.3333C58.2222 66.7778 59.2778 66.7222 59.3333 66.6667C59.7778 66.2222 58.7222 66.2778 58.6667 66.3333z"/>
<path style="fill:#979797; stroke:none;" d="M73 66L74 67L73 66z"/>
<path style="fill:#d3d3d3; stroke:none;" d="M74.6667 66.3333C74.2222 66.7778 75.2778 66.7222 75.3333 66.6667C75.7778 66.2222 74.7222 66.2778 74.6667 66.3333z"/>
<path style="fill:#646464; stroke:none;" d="M76 66L77 67L76 66z"/>
<path style="fill:#4b4b4b; stroke:none;" d="M78 66L79 67L78 66z"/>
<path style="fill:#adadad; stroke:none;" d="M85 66L86 67L85 66z"/>
<path style="fill:#343434; stroke:none;" d="M86 66L87 71C87.9157 68.6996 87.8793 67.6232 86 66z"/>
<path style="fill:#0f0f0f; stroke:none;" d="M41 67C42.2484 67.6848 42.5484 67.7488 44 68C42.7516 67.3152 42.4516 67.2512 41 67z"/>
<path style="fill:#4d4d4d; stroke:none;" d="M51.3333 67.6667C51.2778 67.7222 51.2222 68.7778 51.6667 68.3333C51.7222 68.2778 51.7778 67.2222 51.3333 67.6667z"/>
<path style="fill:#cecece; stroke:none;" d="M52.3333 67.6667C52.2778 67.7222 52.2222 68.7778 52.6667 68.3333C52.7222 68.2778 52.7778 67.2222 52.3333 67.6667z"/>
<path style="fill:#f5f5f5; stroke:none;" d="M53 67L53 69L58 69L58 67L53 67z"/>
<path style="fill:#dbdbdb; stroke:none;" d="M58.3333 67.6667C58.2778 67.7222 58.2222 68.7778 58.6667 68.3333C58.7222 68.2778 58.7778 67.2222 58.3333 67.6667z"/>
<path style="fill:#8c8c8c; stroke:none;" d="M59.3333 67.6667C59.2778 67.7222 59.2222 68.7778 59.6667 68.3333C59.7222 68.2778 59.7778 67.2222 59.3333 67.6667z"/>
<path style="fill:#5f5f5f; stroke:none;" d="M10 68L11 69L10 68z"/>
<path style="fill:#bcbcbc; stroke:none;" d="M11 68C14.1633 69.3274 17.5856 68.9996 21 69C17.8367 67.6726 14.4144 68.0004 11 68z"/>
<path style="fill:#3c3c3c; stroke:none;" d="M21 68L22 69L21 68M23 68L24 69L23 68z"/>
<path style="fill:#a5a5a5; stroke:none;" d="M24 68L25 69L24 68z"/>
<path style="fill:#d8d8d8; stroke:none;" d="M25 68C26.2484 68.6848 26.5484 68.7488 28 69C26.7516 68.3152 26.4516 68.2512 25 68z"/>
<path style="fill:#919191; stroke:none;" d="M28 68L29 69L28 68z"/>
<path style="fill:#515151; stroke:none;" d="M41 68C42.2483 68.6848 42.5484 68.7488 44 69C42.7516 68.3152 42.4516 68.2512 41 68z"/>
<path style="fill:#969696; stroke:none;" d="M66 68L66 73C66.8299 70.9695 66.8299 70.0305 66 68z"/>
<path style="fill:#262626; stroke:none;" d="M9.33333 69.6667C9.27778 69.7222 9.22222 70.7778 9.66667 70.3333C9.72223 70.2778 9.77777 69.2222 9.33333 69.6667z"/>
<path style="fill:#b1b1b1; stroke:none;" d="M10.3333 69.6667C10.2778 69.7222 10.2222 70.7778 10.6667 70.3333C10.7222 70.2778 10.7778 69.2222 10.3333 69.6667z"/>
<path style="fill:#f8f8f8; stroke:none;" d="M11 69L11 71L21 71L21 69L11 69z"/>
<path style="fill:#808080; stroke:none;" d="M21.3333 69.6667C21.2778 69.7222 21.2222 70.7778 21.6667 70.3333C21.7222 70.2778 21.7778 69.2222 21.3333 69.6667z"/>
<path style="fill:#575757; stroke:none;" d="M23.3333 69.6667C23.2778 69.7222 23.2222 70.7778 23.6667 70.3333C23.7222 70.2778 23.7778 69.2222 23.3333 69.6667z"/>
<path style="fill:#ececec; stroke:none;" d="M24 69L24 71L28 71L28 69L24 69z"/>
<path style="fill:#b9b9b9; stroke:none;" d="M28.3333 69.6667C28.2778 69.7222 28.2222 70.7778 28.6667 70.3333C28.7222 70.2778 28.7778 69.2222 28.3333 69.6667z"/>
<path style="fill:#3c3c3c; stroke:none;" d="M29.3333 69.6667C29.2778 69.7222 29.2222 70.7778 29.6667 70.3333C29.7222 70.2778 29.7778 69.2222 29.3333 69.6667z"/>
<path style="fill:#e3e3e3; stroke:none;" d="M32 69L32 73C32.7102 71.2405 32.7102 70.7595 32 69z"/>
<path style="fill:#cdcdcd; stroke:none;" d="M42.3333 69.6667C42.2778 69.7222 42.2222 70.7778 42.6667 70.3333C42.7222 70.2778 42.7778 69.2222 42.3333 69.6667z"/>
<path style="fill:#737373; stroke:none;" d="M52 69L53 70L52 69z"/>
<path style="fill:#bbbbbb; stroke:none;" d="M53 69C54.769 69.7789 56.0359 69.9124 58 70C56.231 69.2211 54.9641 69.0876 53 69z"/>
<path style="fill:#858585; stroke:none;" d="M58 69L59 70L58 69z"/>
<path style="fill:#343434; stroke:none;" d="M59 69L59 76C60.0595 73.4657 60.0595 71.5343 59 69z"/>
<path style="fill:#bababa; stroke:none;" d="M69 69L69 74C69.8299 71.9695 69.8299 71.0305 69 69z"/>
<path style="fill:#262626; stroke:none;" d="M72.6667 69.3333C72.2222 69.7778 73.2778 69.7222 73.3333 69.6667C73.7778 69.2222 72.7222 69.2778 72.6667 69.3333z"/>
<path style="fill:#585858; stroke:none;" d="M74 69C75.769 69.7789 77.0359 69.9124 79 70C77.231 69.2211 75.9641 69.0876 74 69z"/>
<path style="fill:#242424; stroke:none;" d="M79.6667 69.3333C79.2222 69.7778 80.2778 69.7222 80.3333 69.6667C80.7778 69.2222 79.7222 69.2778 79.6667 69.3333z"/>
<path style="fill:#585858; stroke:none;" d="M81 69C82.2484 69.6848 82.5484 69.7488 84 70C82.7517 69.3152 82.4516 69.2512 81 69z"/>
<path style="fill:#646464; stroke:none;" d="M3 70L3 73C3.6961 71.4463 3.6961 71.5537 3 70z"/>
<path style="fill:#353535; stroke:none;" d="M35 70L35 73C35.6961 71.4463 35.6961 71.5537 35 70z"/>
<path style="fill:#979797; stroke:none;" d="M71 70L72 71L71 70z"/>
<path style="fill:#fcfcfc; stroke:none;" d="M71 71C73.6635 72.8578 75.8173 72.3687 79 72L79 70C76.1505 70.0209 73.729 70.1898 71 71z"/>
<path style="fill:#a5a5a5; stroke:none;" d="M79 70L79 72C80.6352 71.4549 80.4549 71.6352 81 70L79 70z"/>
<path style="fill:#f4f4f4; stroke:none;" d="M80 71C82.0465 71.7511 82.5957 71.6556 84 70L80 71z"/>
<path style="fill:#9b9b9b; stroke:none;" d="M84.3333 70.6667C84.2778 70.7222 84.2222 71.7778 84.6667 71.3333C84.7222 71.2778 84.7778 70.2222 84.3333 70.6667z"/>
<path style="fill:#bebebe; stroke:none;" d="M6 71L6 75C6.71021 73.2405 6.71021 72.7595 6 71z"/>
<path style="fill:#424242; stroke:none;" d="M10 71L11 72L10 71z"/>
<path style="fill:#939393; stroke:none;" d="M11 71C14.1633 72.3274 17.5856 71.9996 21 72C17.8367 70.6726 14.4144 71.0004 11 71z"/>
<path style="fill:#555555; stroke:none;" d="M24 71C25.506 71.683 26.3148 71.8259 28 72C26.494 71.317 25.6852 71.1741 24 71z"/>
<path style="fill:#5d5d5d; stroke:none;" d="M41 71L42 72L41 71z"/>
<path style="fill:#6e6e6e; stroke:none;" d="M43 71L43 73L45 73L45 71L43 71z"/>
<path style="fill:#d3d3d3; stroke:none;" d="M47 71L47 77C47.9511 74.7147 47.9511 73.2853 47 71z"/>
<path style="fill:#121212; stroke:none;" d="M87 71L87 76L78 76C81.1633 77.3274 84.5856 76.9996 88 77C87.9528 74.7472 87.8743 73.0521 87 71z"/>
<path style="fill:#3e3e3e; stroke:none;" d="M91 71L91 77C91.9511 74.7147 91.9511 73.2853 91 71z"/>
<path style="fill:#6b6b6b; stroke:none;" d="M95 71L95 77C95.9511 74.7147 95.9511 73.2853 95 71z"/>
<path style="fill:#979797; stroke:none;" d="M71 72L72 73L71 72z"/>
<path style="fill:#d9d9d9; stroke:none;" d="M75 72C76.5061 72.683 77.3148 72.8259 79 73C77.494 72.317 76.6852 72.1741 75 72z"/>
<path style="fill:#7c7c7c; stroke:none;" d="M79.6667 72.3333C79.2222 72.7778 80.2778 72.7222 80.3333 72.6667C80.7778 72.2222 79.7222 72.2778 79.6667 72.3333z"/>
<path style="fill:#d7d7d7; stroke:none;" d="M81 72C82.2484 72.6848 82.5484 72.7488 84 73C82.7517 72.3152 82.4516 72.2512 81 72z"/>
<path style="fill:#515151; stroke:none;" d="M84 72L85 73L84 72z"/>
<path style="fill:#d2d2d2; stroke:none;" d="M92 72L92 76C92.7102 74.2405 92.7102 73.7595 92 72z"/>
<path style="fill:#999999; stroke:none;" d="M3.33333 73.6667C3.27778 73.7222 3.22222 74.7778 3.66667 74.3333C3.72222 74.2778 3.77778 73.2222 3.33333 73.6667z"/>
<path style="fill:#969696; stroke:none;" d="M10 73L12 76C12.699 74.0071 11.9943 73.8473 10 73z"/>
<path style="fill:#505050; stroke:none;" d="M12 73L13 74L12 73z"/>
<path style="fill:#3c3c3c; stroke:none;" d="M15 73L16 74L15 73z"/>
<path style="fill:#7d7d7d; stroke:none;" d="M16.6667 73.3333C16.2222 73.7778 17.2778 73.7222 17.3333 73.6667C17.7778 73.2222 16.7222 73.2778 16.6667 73.3333z"/>
<path style="fill:#919191; stroke:none;" d="M22 73L23 74L22 73z"/>
<path style="fill:#d8d8d8; stroke:none;" d="M23 73C24.2484 73.6848 24.5484 73.7488 26 74C24.7516 73.3152 24.4516 73.2512 23 73z"/>
<path style="fill:#a5a5a5; stroke:none;" d="M26 73L27 74L26 73z"/>
<path style="fill:#3c3c3c; stroke:none;" d="M27 73L28 74L27 73z"/>
<path style="fill:#565656; stroke:none;" d="M35 73L35 76C35.6961 74.4463 35.6961 74.5537 35 73z"/>
<path style="fill:#d0d0d0; stroke:none;" d="M41.6667 73.3333C41.2222 73.7778 42.2778 73.7222 42.3333 73.6667C42.7778 73.2222 41.7222 73.2778 41.6667 73.3333z"/>
<path style="fill:#9f9f9f; stroke:none;" d="M43.6667 73.3333C43.2222 73.7778 44.2778 73.7222 44.3333 73.6667C44.7778 73.2222 43.7222 73.2778 43.6667 73.3333z"/>
<path style="fill:#a9a9a9; stroke:none;" d="M66 73L66 77C66.7102 75.2405 66.7102 74.7595 66 73z"/>
<path style="fill:#cfcfcf; stroke:none;" d="M10 74L10 76L12 76L12 74L10 74z"/>
<path style="fill:#828282; stroke:none;" d="M15.3333 74.6667C15.2778 74.7222 15.2222 75.7778 15.6667 75.3333C15.7222 75.2778 15.7778 74.2222 15.3333 74.6667z"/>
<path style="fill:#c5c5c5; stroke:none;" d="M16 74L16 76L18 76L18 74L16 74z"/>
<path style="fill:#6f6f6f; stroke:none;" d="M18.3333 74.6667C18.2778 74.7222 18.2222 75.7778 18.6667 75.3333C18.7222 75.2778 18.7778 74.2222 18.3333 74.6667M21.3333 74.6667C21.2778 74.7222 21.2222 75.7778 21.6667 75.3333C21.7222 75.2778 21.7778 74.2222 21.3333 74.6667z"/>
<path style="fill:#cccccc; stroke:none;" d="M22.3333 74.6667C22.2778 74.7222 22.2222 75.7778 22.6667 75.3333C22.7222 75.2778 22.7778 74.2222 22.3333 74.6667z"/>
<path style="fill:#d9d9d9; stroke:none;" d="M26.3333 74.6667C26.2778 74.7222 26.2222 75.7778 26.6667 75.3333C26.7222 75.2778 26.7778 74.2222 26.3333 74.6667z"/>
<path style="fill:#848484; stroke:none;" d="M27.3333 74.6667C27.2778 74.7222 27.2222 75.7778 27.6667 75.3333C27.7222 75.2778 27.7778 74.2222 27.3333 74.6667z"/>
<path style="fill:#5c5c5c; stroke:none;" d="M37 74L38 75L37 74z"/>
<path style="fill:#a5a5a5; stroke:none;" d="M38.6667 74.3333C38.2222 74.7778 39.2778 74.7222 39.3333 74.6667C39.7778 74.2222 38.7222 74.2778 38.6667 74.3333z"/>
<path style="fill:#525252; stroke:none;" d="M40 74L41 75L40 74z"/>
<path style="fill:#aeaeae; stroke:none;" d="M41.6667 74.3333C41.2222 74.7778 42.2778 74.7222 42.3333 74.6667C42.7778 74.2222 41.7222 74.2778 41.6667 74.3333z"/>
<path style="fill:#616161; stroke:none;" d="M43 74L44 75L43 74z"/>
<path style="fill:#e0e0e0; stroke:none;" d="M44 74C41.1963 76.1247 38.4665 75.9885 35 76C37.3497 77.1347 45.6757 78.4451 44 74z"/>
<path style="fill:#8c8c8c; stroke:none;" d="M69 74L69 77C69.6961 75.4463 69.6961 75.5537 69 74z"/>
<path style="fill:#404040; stroke:none;" d="M2 75L3 76L2 75z"/>
<path style="fill:#8e8e8e; stroke:none;" d="M7 75C8.24835 75.6848 8.54842 75.7488 10 76C8.75165 75.3152 8.45158 75.2512 7 75z"/>
<path style="fill:#464646; stroke:none;" d="M13.6667 75.3333C13.2222 75.7778 14.2778 75.7222 14.3333 75.6667C14.7778 75.2222 13.7222 75.2778 13.6667 75.3333z"/>
<path style="fill:#454545; stroke:none;" d="M19.6667 75.3333C19.2222 75.7778 20.2778 75.7222 20.3333 75.6667C20.7778 75.2222 19.7222 75.2778 19.6667 75.3333z"/>
<path style="fill:#363636; stroke:none;" d="M28 75C29.506 75.683 30.3148 75.8259 32 76C30.494 75.317 29.6852 75.1741 28 75z"/>
<path style="fill:#212121; stroke:none;" d="M1.33333 76.6667C1.27778 76.7222 1.22223 77.7778 1.66667 77.3333C1.72222 77.2778 1.77778 76.2222 1.33333 76.6667z"/>
<path style="fill:#b9b9b9; stroke:none;" d="M2.33333 76.6667C2.27778 76.7222 2.22223 77.7778 2.66667 77.3333C2.72222 77.2778 2.77778 76.2222 2.33333 76.6667z"/>
<path style="fill:#8e8e8e; stroke:none;" d="M48 76C51.6975 77.5515 56.0168 77 60 77C56.3025 75.4485 51.9832 76 48 76z"/>
<path style="fill:#8c8c8c; stroke:none;" d="M63 76C64.2484 76.6848 64.5484 76.7488 66 77C64.7517 76.3152 64.4516 76.2512 63 76z"/>
<path style="fill:#d7d7d7; stroke:none;" d="M67.6667 76.3333C67.2222 76.7778 68.2778 76.7222 68.3333 76.6667C68.7778 76.2222 67.7222 76.2778 67.6667 76.3333z"/>
<path style="fill:#444444; stroke:none;" d="M70 76C72.6127 77.0977 75.1645 76.9928 78 77C75.3873 75.9023 72.8355 76.0072 70 76z"/>
<path style="fill:#656565; stroke:none;" d="M88 76L89 77L88 76z"/>
<path style="fill:#a4a4a4; stroke:none;" d="M89 76L90 77L89 76z"/>
<path style="fill:#717171; stroke:none;" d="M90 76L91 77L90 76z"/>
<path style="fill:#959595; stroke:none;" d="M92 76L93 77L92 76z"/>
<path style="fill:#c4c4c4; stroke:none;" d="M93.6667 76.3333C93.2222 76.7778 94.2778 76.7222 94.3333 76.6667C94.7778 76.2222 93.7222 76.2778 93.6667 76.3333z"/>
<path style="fill:#e5e5e5; stroke:none;" d="M79 77C84.4692 79.295 92.0987 78 98 78C92.5308 75.705 84.9013 77 79 77z"/>
<path style="fill:#6d6d6d; stroke:none;" d="M98 77L99 78L98 77z"/>
<path style="fill:#5b5b5b; stroke:none;" d="M2 78L3 79L2 78z"/>
<path style="fill:#c2c2c2; stroke:none;" d="M3 78C5.0521 78.8742 6.74718 78.9528 9 79C6.9479 78.1258 5.25282 78.0472 3 78z"/>
<path style="fill:#e1e1e1; stroke:none;" d="M9 78C14.959 80.5005 23.5639 79 30 79C24.041 76.4995 15.4361 78 9 78z"/>
<path style="fill:#c1c1c1; stroke:none;" d="M98 78L99 79L98 78z"/>
<path style="fill:#121212; stroke:none;" d="M3 79C10.4089 82.1089 21.9755 80 30 80C22.5911 76.8911 11.0245 79 3 79z"/>
<path style="fill:#434343; stroke:none;" d="M30 79C33.9587 80.6611 38.7366 80 43 80C39.0413 78.3389 34.2634 79 30 79z"/>
<path style="fill:#8b8b8b; stroke:none;" d="M43 79C44.2484 79.6848 44.5484 79.7488 46 80C44.7516 79.3152 44.4516 79.2512 43 79z"/>
<path style="fill:#c1c1c1; stroke:none;" d="M46 79C51.7147 81.398 59.8308 80 66 80C60.2854 77.602 52.1692 79 46 79z"/>
<path style="fill:#e4e4e4; stroke:none;" d="M66 79C69.6975 80.5515 74.0168 80 78 80C74.3025 78.4485 69.9832 79 66 79z"/>
<path style="fill:#878787; stroke:none;" d="M98 79L99 80L98 79z"/>
<path style="fill:#424242; stroke:none;" d="M53 80C54.5061 80.683 55.3148 80.8259 57 81C55.494 80.317 54.6852 80.1741 53 80z"/>
<path style="fill:#131313; stroke:none;" d="M57 80C62.6444 83.0371 72.5874 81 79 81C72.7977 78.3974 63.7023 80 57 80z"/>
<path style="fill:#444444; stroke:none;" d="M79 80C84.4692 82.295 92.0987 81 98 81C92.5308 78.705 84.9013 80 79 80z"/>
<path style="fill:#a4a4a4; stroke:none;" d="M0 81L1 82L0 81z"/>
<path style="fill:#ffffff; stroke:none;" d="M1 81C2.59518 86.5373 5.98305 91.295 7 97L11 97C12.6051 91.4284 15.5121 86.2311 18 81L14 81C12.8628 84.9476 11.0673 88.4574 9 92C7.49956 88.3418 5.91673 84.8595 5 81L1 81z"/>
<path style="fill:#7c7c7c; stroke:none;" d="M5 81L6 82L5 81z"/>
<path style="fill:#9c9c9c; stroke:none;" d="M13 81L14 82L13 81z"/>
<path style="fill:#707070; stroke:none;" d="M18 81L19 82L18 81z"/>
<path style="fill:#aeaeae; stroke:none;" d="M20 81L21 82L20 81z"/>
<path style="fill:#ffffff; stroke:none;" d="M21 81L21 97L24 97L24 81L21 81z"/>
<path style="fill:#989898; stroke:none;" d="M24 81L25 82L24 81z"/>
<path style="fill:#ffffff; stroke:none;" d="M28 81C29.2575 86.282 29 91.6001 29 97L32 97L32 90C34.6939 89.9997 38.2555 90.5485 40.7677 89.3966C44.0613 87.8865 43.5749 83.9236 40.7677 82.179C37.354 80.0575 31.8474 81 28 81z"/>
<path style="fill:#bdbdbd; stroke:none;" d="M40 81L41 82L40 81z"/>
<path style="fill:#575757; stroke:none;" d="M41 81L42 82L41 81z"/>
<path style="fill:#676767; stroke:none;" d="M50 81L51 82L50 81z"/>
<path style="fill:#b1b1b1; stroke:none;" d="M51 81L52 82L51 81z"/>
<path style="fill:#ffffff; stroke:none;" d="M62 92C60.155 92.9221 58.1226 94.2497 55.9992 94.3565C51.5001 94.5827 47.6596 89.0996 51.4483 85.6003C54.6435 82.6492 58.7334 84.3697 62 86C62.9857 84.5215 63 84.7968 63 83C60.7253 82.2789 58.4024 81.3797 55.9985 81.2276C54.3263 81.1219 52.6381 81.3335 51.0941 82.01C49.9193 82.5248 48.6399 83.3175 47.8943 84.3943C39.9688 95.8401 62.1709 101.391 62 92z"/>
<path style="fill:#d4d4d4; stroke:none;" d="M58 81L59 82L58 81z"/>
<path style="fill:#7f7f7f; stroke:none;" d="M59 81L60 82L59 81z"/>
<path style="fill:#4d4d4d; stroke:none;" d="M13 82L14 83L13 82z"/>
<path style="fill:#646464; stroke:none;" d="M17 82L18 83L17 82z"/>
<path style="fill:#5c5c5c; stroke:none;" d="M20 82L20 96C21.6668 92.0279 21.6668 85.9721 20 82z"/>
<path style="fill:#292929; stroke:none;" d="M24 82L24 96C25.6668 92.0279 25.6668 85.9721 24 82z"/>
<path style="fill:#7f7f7f; stroke:none;" d="M28 82L28 96C29.6668 92.0279 29.6668 85.9721 28 82z"/>
<path style="fill:#acacac; stroke:none;" d="M42 82L43 83L42 82z"/>
<path style="fill:#2f2f2f; stroke:none;" d="M48 82L49 83L48 82z"/>
<path style="fill:#c1c1c1; stroke:none;" d="M49 82L50 83L49 82z"/>
<path style="fill:#7a7a7a; stroke:none;" d="M61 82L62 83L61 82z"/>
<path style="fill:#636363; stroke:none;" d="M1 83L2 84L1 83z"/>
<path style="fill:#686868; stroke:none;" d="M5 83L6 84L5 83z"/>
<path style="fill:#a5a5a5; stroke:none;" d="M13 83L14 84L13 83z"/>
<path style="fill:#d1d1d1; stroke:none;" d="M16 83L17 84L16 83z"/>
<path style="fill:#bdbdbd; stroke:none;" d="M32 83C33.5061 83.683 34.3148 83.8259 36 84C34.494 83.317 33.6852 83.1741 32 83z"/>
<path style="fill:#838383; stroke:none;" d="M43 83L44 84L43 83z"/>
<path style="fill:#3a3a3a; stroke:none;" d="M47 83L48 84L47 83z"/>
<path style="fill:#b6b6b6; stroke:none;" d="M57 83L58 84L57 83z"/>
<path style="fill:#b0b0b0; stroke:none;" d="M63 83L64 84L63 83z"/>
<path style="fill:#252525; stroke:none;" d="M66 83C67.6481 83.9241 69.1749 84.4494 71 85C69.4602 83.1969 68.4025 83.168 66 83z"/>
<path style="fill:#878787; stroke:none;" d="M72 83L73 84L72 83z"/>
<path style="fill:#202020; stroke:none;" d="M73 83C76.4324 84.4403 80.2998 84 84 84C80.5676 82.5597 76.7002 83 73 83z"/>
<path style="fill:#505050; stroke:none;" d="M84.6667 83.3333C84.2222 83.7778 85.2778 83.7222 85.3333 83.6667C85.7778 83.2222 84.7222 83.2778 84.6667 83.3333z"/>
<path style="fill:#202020; stroke:none;" d="M86 83C87.769 83.7789 89.0359 83.9124 91 84C89.2309 83.2211 87.9641 83.0876 86 83M95 83C96.769 83.7789 98.0359 83.9124 100 84C98.231 83.2211 96.9641 83.0876 95 83z"/>
<path style="fill:#676767; stroke:none;" d="M16 84L17 85L16 84z"/>
<path style="fill:#000000; stroke:none;" d="M32 84L32 87L40 87L40 84L32 84z"/>
<path style="fill:#cecece; stroke:none;" d="M40 84L41 85L40 84z"/>
<path style="fill:#d2d2d2; stroke:none;" d="M43 84L44 85L43 84M47 84L48 85L47 84z"/>
<path style="fill:#aaaaaa; stroke:none;" d="M51 84L52 85L51 84z"/>
<path style="fill:#2c2c2c; stroke:none;" d="M52 84L53 85L52 84z"/>
<path style="fill:#707070; stroke:none;" d="M59 84L60 85L59 84z"/>
<path style="fill:#bebebe; stroke:none;" d="M66 84L67 85L66 84z"/>
<path style="fill:#ffffff; stroke:none;" d="M67 84C67 88.1018 65.1472 95.9601 70 97C68.9236 92.4789 68.9236 88.5211 70 84L67 84M72 84L72 86L77 86L77 97L80 97L80 86L85 86L85 84L72 84z"/>
<path style="fill:#939393; stroke:none;" d="M85 84L86 85L85 84z"/>
<path style="fill:#ffffff; stroke:none;" d="M86 84C88.7164 88.4263 90.8425 91.6945 91 97L94 97C94.1672 91.7403 96.4726 88.4636 99 84L95 84C94.1219 86.0175 93.3485 87.2323 92 89C90.6468 85.7629 89.4826 84.5876 86 84z"/>
<path style="fill:#afafaf; stroke:none;" d="M90.3333 84.6667C90.2778 84.7222 90.2222 85.7778 90.6667 85.3333C90.7222 85.2778 90.7778 84.2222 90.3333 84.6667z"/>
<path style="fill:#181818; stroke:none;" d="M94.3333 84.6667C94.2778 84.7222 94.2222 85.7778 94.6667 85.3333C94.7222 85.2778 94.7778 84.2222 94.3333 84.6667z"/>
<path style="fill:#8f8f8f; stroke:none;" d="M99 84L100 85L99 84z"/>
<path style="fill:#767676; stroke:none;" d="M2 85L3 86L2 85z"/>
<path style="fill:#606060; stroke:none;" d="M6 85L7 86L6 85z"/>
<path style="fill:#8d8d8d; stroke:none;" d="M12 85L13 86L12 85z"/>
<path style="fill:#aaaaaa; stroke:none;" d="M40.3333 85.6667C40.2778 85.7222 40.2222 86.7778 40.6667 86.3333C40.7222 86.2778 40.7778 85.2222 40.3333 85.6667z"/>
<path style="fill:#6e6e6e; stroke:none;" d="M46 85L47 86L46 85z"/>
<path style="fill:#919191; stroke:none;" d="M50 85L51 86L50 85z"/>
<path style="fill:#606060; stroke:none;" d="M62 85L63 86L62 85z"/>
<path style="fill:#4b4b4b; stroke:none;" d="M66 85L66 96C67.4309 92.59 67.4309 88.41 66 85z"/>
<path style="fill:#e9e9e9; stroke:none;" d="M69 85L69 96C70.4309 92.59 70.4309 88.41 69 85z"/>
<path style="fill:#404040; stroke:none;" d="M85 85L85 87C86.6351 86.455 86.4549 86.6352 87 85L85 85z"/>
<path style="fill:#808080; stroke:none;" d="M98 85L99 86L98 85z"/>
<path style="fill:#cfcfcf; stroke:none;" d="M6 86L7 87L6 86z"/>
<path style="fill:#797979; stroke:none;" d="M15 86L16 87L15 86z"/>
<path style="fill:#a4a4a4; stroke:none;" d="M61 86L62 87L61 86z"/>
<path style="fill:#ababab; stroke:none;" d="M72 86L73 87L72 86z"/>
<path style="fill:#404040; stroke:none;" d="M73 86C74.5061 86.683 75.3148 86.8259 77 87C75.494 86.317 74.6852 86.1741 73 86M80 86C81.5061 86.683 82.3148 86.8259 84 87C82.494 86.317 81.6852 86.1741 80 86z"/>
<path style="fill:#8b8b8b; stroke:none;" d="M84 86L85 87L84 86z"/>
<path style="fill:#686868; stroke:none;" d="M87 86L88 87L87 86z"/>
<path style="fill:#4c4c4c; stroke:none;" d="M91 86L92 87L91 86z"/>
<path style="fill:#ababab; stroke:none;" d="M94 86L95 87L94 86z"/>
<path style="fill:#b7b7b7; stroke:none;" d="M97 86L98 87L97 86z"/>
<path style="fill:#888888; stroke:none;" d="M3 87L4 88L3 87z"/>
<path style="fill:#494949; stroke:none;" d="M7 87L8 88L7 87z"/>
<path style="fill:#757575; stroke:none;" d="M11 87L12 88L11 87z"/>
<path style="fill:#1e1e1e; stroke:none;" d="M32 87C34.3316 87.9845 36.4567 87.9813 39 88C36.6684 87.0155 34.5433 87.0187 32 87z"/>
<path style="fill:#a2a2a2; stroke:none;" d="M39 87L40 88L39 87z"/>
<path style="fill:#b9b9b9; stroke:none;" d="M43 87L44 88L43 87z"/>
<path style="fill:#676767; stroke:none;" d="M49 87L49 91C49.7102 89.2405 49.7102 88.7595 49 87z"/>
<path style="fill:#202020; stroke:none;" d="M80 87L80 96C81.2561 93.0059 81.2561 89.9941 80 87z"/>
<path style="fill:#ababab; stroke:none;" d="M88 87L89 88L88 87z"/>
<path style="fill:#646464; stroke:none;" d="M93 87L94 88L93 87z"/>
<path style="fill:#c7c7c7; stroke:none;" d="M7 88L8 89L7 88z"/>
<path style="fill:#8c8c8c; stroke:none;" d="M14 88L15 89L14 88z"/>
<path style="fill:#4c4c4c; stroke:none;" d="M43 88L44 89L43 88z"/>
<path style="fill:#2b2b2b; stroke:none;" d="M45.3333 88.6667C45.2778 88.7222 45.2222 89.7778 45.6667 89.3333C45.7222 89.2778 45.7778 88.2222 45.3333 88.6667z"/>
<path style="fill:#bfbfbf; stroke:none;" d="M92 88L93 89L92 88z"/>
<path style="fill:#444444; stroke:none;" d="M96 88L97 89L96 88z"/>
<path style="fill:#9b9b9b; stroke:none;" d="M4 89L5 90L4 89z"/>
<path style="fill:#656565; stroke:none;" d="M10 89L11 90L10 89z"/>
<path style="fill:#616161; stroke:none;" d="M42 89L43 90L42 89z"/>
<path style="fill:#3c3c3c; stroke:none;" d="M89 89L90 90L89 89z"/>
<path style="fill:#878787; stroke:none;" d="M95 89L96 90L95 89z"/>
<path style="fill:#303030; stroke:none;" d="M4 90L5 91L4 90z"/>
<path style="fill:#bcbcbc; stroke:none;" d="M8 90L9 91L8 90z"/>
<path style="fill:#9e9e9e; stroke:none;" d="M13 90L14 91L13 90z"/>
<path style="fill:#8d8d8d; stroke:none;" d="M32 90C34.0521 90.8743 35.7472 90.9528 38 91C35.9479 90.1257 34.2528 90.0472 32 90z"/>
<path style="fill:#626262; stroke:none;" d="M38.6667 90.3333C38.2222 90.7778 39.2778 90.7222 39.3333 90.6667C39.7778 90.2222 38.7222 90.2778 38.6667 90.3333z"/>
<path style="fill:#343434; stroke:none;" d="M40 90L41 91L40 90z"/>
<path style="fill:#7c7c7c; stroke:none;" d="M90 90L91 91L90 90z"/>
<path style="fill:#c7c7c7; stroke:none;" d="M94 90L95 91L94 90z"/>
<path style="fill:#adadad; stroke:none;" d="M5 91L6 92L5 91z"/>
<path style="fill:#5c5c5c; stroke:none;" d="M9 91L10 92L9 91z"/>
<path style="fill:#333333; stroke:none;" d="M13 91L14 92L13 91z"/>
<path style="fill:#c9c9c9; stroke:none;" d="M46 91L47 92L46 91z"/>
<path style="fill:#606060; stroke:none;" d="M61 91L62 92L61 91z"/>
<path style="fill:#404040; stroke:none;" d="M94 91L94 96C94.8299 93.9695 94.8299 93.0305 94 91z"/>
<path style="fill:#434343; stroke:none;" d="M5 92L6 93L5 92z"/>
<path style="fill:#b1b1b1; stroke:none;" d="M12 92L13 93L12 92z"/>
<path style="fill:#6c6c6c; stroke:none;" d="M46 92L47 93L46 92z"/>
<path style="fill:#909090; stroke:none;" d="M50 92L51 93L50 92z"/>
<path style="fill:#5c5c5c; stroke:none;" d="M62 92L63 93L62 92z"/>
<path style="fill:#c0c0c0; stroke:none;" d="M6 93L7 94L6 93z"/>
<path style="fill:#464646; stroke:none;" d="M12 93L13 94L12 93z"/>
<path style="fill:#cccccc; stroke:none;" d="M47 93L48 94L47 93z"/>
<path style="fill:#a9a9a9; stroke:none;" d="M51 93L52 94L51 93z"/>
<path style="fill:#6f6f6f; stroke:none;" d="M59 93L60 94L59 93z"/>
<path style="fill:#555555; stroke:none;" d="M6 94L7 95L6 94z"/>
<path style="fill:#c3c3c3; stroke:none;" d="M11 94L12 95L11 94z"/>
<path style="fill:#3c3c3c; stroke:none;" d="M47 94L48 95L47 94z"/>
<path style="fill:#909090; stroke:none;" d="M53 94C54.769 94.7789 56.0359 94.9124 58 95C56.231 94.2211 54.9641 94.0876 53 94z"/>
<path style="fill:#b3b3b3; stroke:none;" d="M63 94L64 95L63 94z"/>
<path style="fill:#636363; stroke:none;" d="M11 95L12 96L11 95z"/>
<path style="fill:#313131; stroke:none;" d="M48 95L49 96L48 95z"/>
<path style="fill:#bebebe; stroke:none;" d="M49 95L50 96L49 95z"/>
<path style="fill:#787878; stroke:none;" d="M61 95L62 96L61 95z"/>
<path style="fill:#696969; stroke:none;" d="M6 96L7 97L6 96z"/>
<path style="fill:#a5a5a5; stroke:none;" d="M11 96L12 97L11 96z"/>
<path style="fill:#b9b9b9; stroke:none;" d="M20 96L21 97L20 96z"/>
<path style="fill:#9a9a9a; stroke:none;" d="M24 96L25 97L24 96z"/>
<path style="fill:#cacaca; stroke:none;" d="M28 96L29 97L28 96z"/>
<path style="fill:#8b8b8b; stroke:none;" d="M32 96L33 97L32 96z"/>
<path style="fill:#3f3f3f; stroke:none;" d="M50 96L51 97L50 96z"/>
<path style="fill:#aaaaaa; stroke:none;" d="M51 96L52 97L51 96z"/>
<path style="fill:#767676; stroke:none;" d="M59 96L60 97L59 96z"/>
<path style="fill:#9f9f9f; stroke:none;" d="M66 96L67 97L66 96z"/>
<path style="fill:#707070; stroke:none;" d="M70 96L71 97L70 96z"/>
<path style="fill:#686868; stroke:none;" d="M76 96L77 97L76 96z"/>
<path style="fill:#979797; stroke:none;" d="M80 96L81 97L80 96z"/>
<path style="fill:#606060; stroke:none;" d="M90 96L91 97L90 96z"/>
<path style="fill:#a7a7a7; stroke:none;" d="M94 96L95 97L94 96z"/>
<path style="fill:#454545; stroke:none;" d="M54 97C55.2484 97.6848 55.5484 97.7488 57 98C55.7516 97.3152 55.4516 97.2512 54 97z"/>
</svg>
